<svg width="218" height="65" viewBox="0 0 218 65" fill="none" xmlns="http://www.w3.org/2000/svg">
<g id="App_Store" clipPath="url(#clip0_44_81)">
<g id="Group">
<path id="Vector" d="M209.43 0.810059H8.19006C4.1142 0.810059 0.810059 4.1142 0.810059 8.19006V55.8701C0.810059 59.9459 4.1142 63.2501 8.19006 63.2501H209.43C213.506 63.2501 216.81 59.9459 216.81 55.8701V8.19006C216.81 4.1142 213.506 0.810059 209.43 0.810059Z" fill="black"/>
<path id="Vector_2" d="M209.43 64.05H8.19C3.67 64.05 0 60.38 0 55.86V8.19C0 3.67 3.67 0 8.19 0H209.43C213.95 0 217.62 3.67 217.62 8.19V55.86C217.62 60.38 213.95 64.05 209.43 64.05ZM8.19 1.62C4.57 1.62 1.62 4.57 1.62 8.19V55.86C1.62 59.48 4.57 62.43 8.19 62.43H209.43C213.05 62.43 216 59.48 216 55.86V8.19C216 4.56 213.05 1.62 209.43 1.62H8.19Z" fill="#A7A9AC"/>
</g>
<g id="Group_2">
<path id="Vector_3" d="M72.4501 18.2099L71.5401 21.1899H69.5601L72.9301 10.6699H75.3801L78.8001 21.1899H76.7401L75.7901 18.2099H72.4501ZM75.4601 16.7599L74.6301 14.1699C74.4301 13.5299 74.2601 12.8099 74.1001 12.1999H74.0701C73.9101 12.8099 73.7601 13.5399 73.5701 14.1699L72.7601 16.7599H75.4601Z" fill="white"/>
<path id="Vector_4" d="M81.6701 13.5903L82.9001 17.4503C83.1201 18.1203 83.2701 18.7303 83.4201 19.3503H83.4701C83.6101 18.7303 83.7801 18.1303 83.9901 17.4503L85.2101 13.5903H87.2201L84.3201 21.1903H82.4301L79.6001 13.5903H81.6801H81.6701Z" fill="white"/>
<path id="Vector_5" d="M94.8702 19.3702C94.8702 20.0602 94.9002 20.7302 94.9902 21.2002H93.2602L93.1202 20.3602H93.0702C92.6202 20.9502 91.8202 21.3702 90.8202 21.3702C89.2902 21.3702 88.4302 20.2602 88.4302 19.1102C88.4302 17.2102 90.1302 16.2202 92.9402 16.2402V16.1202C92.9402 15.6202 92.7402 14.7902 91.3902 14.7902C90.6402 14.7902 89.8602 15.0202 89.3502 15.3502L88.9802 14.1002C89.5402 13.7602 90.5302 13.4302 91.7302 13.4302C94.1702 13.4302 94.8702 14.9802 94.8702 16.6502V19.3802V19.3702ZM93.0002 17.4802C91.6402 17.4602 90.3502 17.7502 90.3502 18.9002C90.3502 19.6502 90.8302 19.9902 91.4402 19.9902C92.2202 19.9902 92.7702 19.4902 92.9502 18.9402C93.0002 18.8002 93.0002 18.6602 93.0002 18.5202V17.4702V17.4802Z" fill="white"/>
<path id="Vector_6" d="M98.54 12.4999C97.9 12.4999 97.48 12.0299 97.48 11.4699C97.48 10.8799 97.92 10.4199 98.56 10.4199C99.2 10.4199 99.62 10.8699 99.64 11.4699C99.64 12.0299 99.22 12.4999 98.56 12.4999H98.54ZM97.59 21.1899V13.5899H99.51V21.1899H97.59Z" fill="white"/>
<path id="Vector_7" d="M102.27 10.1001H104.19V21.2001H102.27V10.1001Z" fill="white"/>
<path id="Vector_8" d="M112.87 19.3702C112.87 20.0602 112.9 20.7302 112.99 21.2002H111.26L111.12 20.3602H111.07C110.62 20.9502 109.82 21.3702 108.82 21.3702C107.29 21.3702 106.43 20.2602 106.43 19.1102C106.43 17.2102 108.13 16.2202 110.94 16.2402V16.1202C110.94 15.6202 110.74 14.7902 109.4 14.7902C108.65 14.7902 107.87 15.0202 107.36 15.3502L106.99 14.1002C107.55 13.7602 108.54 13.4302 109.74 13.4302C112.17 13.4302 112.88 14.9802 112.88 16.6502V19.3802L112.87 19.3702ZM111 17.4802C109.64 17.4602 108.35 17.7502 108.35 18.9002C108.35 19.6502 108.83 19.9902 109.44 19.9902C110.22 19.9902 110.77 19.4902 110.95 18.9402C111 18.8002 111 18.6602 111 18.5202V17.4702V17.4802Z" fill="white"/>
<path id="Vector_9" d="M115.58 10.1001H117.5V14.6401H117.53C118 13.9101 118.83 13.4201 119.97 13.4201C121.83 13.4201 123.15 14.9701 123.14 17.2801C123.14 20.0101 121.41 21.3701 119.69 21.3701C118.71 21.3701 117.83 20.9901 117.29 20.0601H117.26L117.17 21.2001H115.53C115.56 20.6801 115.59 19.8401 115.59 19.0801V10.1001H115.58ZM117.5 18.0601C117.5 18.2201 117.52 18.3701 117.55 18.5101C117.75 19.2901 118.42 19.8501 119.25 19.8501C120.45 19.8501 121.19 18.9001 121.19 17.3501C121.19 16.0101 120.55 14.9201 119.27 14.9201C118.49 14.9201 117.77 15.4801 117.57 16.3201C117.54 16.4601 117.51 16.6301 117.51 16.8201V18.0501L117.5 18.0601Z" fill="white"/>
<path id="Vector_10" d="M125.4 10.1001H127.32V21.2001H125.4V10.1001Z" fill="white"/>
<path id="Vector_11" d="M131.45 17.9299C131.5 19.2999 132.57 19.8999 133.79 19.8999C134.68 19.8999 135.3 19.7599 135.9 19.5599L136.18 20.8699C135.52 21.1499 134.62 21.3499 133.53 21.3499C131.06 21.3499 129.61 19.8399 129.61 17.5099C129.61 15.3999 130.89 13.4199 133.33 13.4199C135.77 13.4199 136.61 15.4499 136.61 17.1199C136.61 17.4799 136.58 17.7599 136.55 17.9299H131.46H131.45ZM134.79 16.5899C134.81 15.8899 134.49 14.7299 133.21 14.7299C132.02 14.7299 131.52 15.8099 131.45 16.5899H134.79Z" fill="white"/>
<path id="Vector_12" d="M146.08 21.3699C143.94 21.3699 142.27 19.8999 142.27 17.4499C142.27 14.9999 143.91 13.4199 146.2 13.4199C148.49 13.4199 149.98 15.0099 149.98 17.3199C149.98 20.1099 148.01 21.3599 146.09 21.3599H146.07L146.08 21.3699ZM146.14 19.9799C147.23 19.9799 148 18.9199 148 17.3699C148 16.1799 147.47 14.8099 146.16 14.8099C144.85 14.8099 144.25 16.1399 144.25 17.3999C144.25 18.8699 144.98 19.9799 146.12 19.9799H146.14Z" fill="white"/>
<path id="Vector_13" d="M152.24 15.8602C152.24 14.9902 152.21 14.2502 152.18 13.6002H153.85L153.94 14.7402H153.99C154.33 14.1502 155.16 13.4302 156.43 13.4302C157.7 13.4302 159.13 14.2902 159.13 16.6902V21.2002H157.21V16.9102C157.21 15.8202 156.8 14.9902 155.76 14.9902C155 14.9902 154.47 15.5402 154.26 16.1102C154.2 16.2702 154.17 16.5002 154.17 16.7202V21.2002H152.25V15.8602H152.24Z" fill="white"/>
<path id="Vector_14" d="M167.97 11.6399V13.5899H169.8V15.0299H167.97V18.3699C167.97 19.3099 168.22 19.7699 168.95 19.7699C169.29 19.7699 169.48 19.7499 169.7 19.6899L169.73 21.1399C169.45 21.2499 168.93 21.3399 168.34 21.3399C167.62 21.3399 167.05 21.1099 166.69 20.7199C166.27 20.2799 166.08 19.5799 166.08 18.5799V15.0199H165V13.5799H166.08V12.1599L167.97 11.6299V11.6399Z" fill="white"/>
<path id="Vector_15" d="M171.93 10.1001H173.85V14.6301H173.88C174.11 14.2701 174.44 13.9701 174.83 13.7701C175.22 13.5501 175.67 13.4301 176.16 13.4301C177.45 13.4301 178.81 14.2901 178.81 16.7201V21.2001H176.89V16.9201C176.89 15.8301 176.48 14.9801 175.42 14.9801C174.67 14.9801 174.14 15.4801 173.92 16.0601C173.86 16.2301 173.84 16.4401 173.84 16.6401V21.2001H171.92V10.1001H171.93Z" fill="white"/>
<path id="Vector_16" d="M182.9 17.9299C182.95 19.2999 184.02 19.8999 185.24 19.8999C186.13 19.8999 186.75 19.7599 187.35 19.5599L187.63 20.8699C186.97 21.1499 186.07 21.3499 184.98 21.3499C182.51 21.3499 181.06 19.8399 181.06 17.5099C181.06 15.3999 182.34 13.4199 184.78 13.4199C187.22 13.4199 188.06 15.4499 188.06 17.1199C188.06 17.4799 188.03 17.7599 188 17.9299H182.91H182.9ZM186.24 16.5899C186.26 15.8899 185.94 14.7299 184.66 14.7299C183.47 14.7299 182.97 15.8099 182.9 16.5899H186.24Z" fill="white"/>
</g>
<g id="Group_3">
<g id="Group_4">
<path id="Vector_17" d="M48.5701 31.3998C48.5201 26.1898 52.8301 23.6598 53.0301 23.5398C50.5901 19.9798 46.8001 19.4898 45.4701 19.4498C42.2901 19.1198 39.2101 21.3498 37.5901 21.3498C35.9701 21.3498 33.4401 19.4798 30.7601 19.5298C27.3001 19.5898 24.0701 21.5898 22.2901 24.6898C18.6301 31.0298 21.3601 40.3398 24.8701 45.4698C26.6301 47.9798 28.6801 50.7798 31.3601 50.6798C33.9801 50.5698 34.9601 49.0098 38.1301 49.0098C41.3001 49.0098 42.1901 50.6798 44.9301 50.6198C47.7501 50.5698 49.5201 48.0998 51.2101 45.5698C53.2401 42.6898 54.0501 39.8598 54.0901 39.7198C54.0201 39.6998 48.6201 37.6398 48.5601 31.3898" fill="white"/>
<path id="Vector_18" d="M43.3901 16.09C44.8001 14.32 45.7701 11.92 45.5001 9.47998C43.4601 9.56998 40.9001 10.89 39.4301 12.62C38.1301 14.14 36.9601 16.64 37.2601 18.98C39.5601 19.15 41.9101 17.82 43.3901 16.08" fill="white"/>
</g>
<g id="Group_5">
<path id="Vector_19" d="M86.5102 50.2798H82.8502L80.8502 43.9798H73.8902L71.9802 50.2798H68.4202L75.3202 28.8398H79.5802L86.5102 50.2798ZM80.2502 41.3398L78.4402 35.7398C78.2502 35.1698 77.8902 33.8198 77.3602 31.6998H77.3002C77.0902 32.6098 76.7502 33.9598 76.2802 35.7398L74.5002 41.3398H80.2602H80.2502Z" fill="white"/>
<path id="Vector_20" d="M104.26 42.3602C104.26 44.9902 103.55 47.0702 102.13 48.5902C100.86 49.9502 99.2801 50.6202 97.3901 50.6202C95.3501 50.6202 93.8901 49.8902 93.0001 48.4302H92.9401V56.5702H89.5001V39.9002C89.5001 38.2502 89.4601 36.5502 89.3701 34.8102H92.3901L92.5801 37.2602H92.6501C93.7901 35.4102 95.5301 34.4902 97.8601 34.4902C99.6801 34.4902 101.21 35.2102 102.42 36.6502C103.64 38.0902 104.25 39.9902 104.25 42.3402M100.75 42.4702C100.75 40.9702 100.41 39.7202 99.7301 38.7502C98.9901 37.7302 97.9901 37.2202 96.7401 37.2202C95.8901 37.2202 95.1201 37.5002 94.4301 38.0602C93.7401 38.6302 93.2901 39.3602 93.0801 40.2702C92.9701 40.7002 92.9201 41.0402 92.9201 41.3202V43.9002C92.9201 45.0202 93.2601 45.9702 93.9501 46.7402C94.6401 47.5202 95.5401 47.9002 96.6401 47.9002C97.9301 47.9002 98.9401 47.4102 99.6601 46.4102C100.38 45.4102 100.74 44.1002 100.74 42.4602" fill="white"/>
<path id="Vector_21" d="M122.04 42.3602C122.04 44.9902 121.33 47.0702 119.91 48.5902C118.64 49.9502 117.06 50.6202 115.17 50.6202C113.14 50.6202 111.67 49.8902 110.78 48.4302H110.72V56.5702H107.29V39.9002C107.29 38.2502 107.25 36.5502 107.16 34.8102H110.18L110.37 37.2602H110.44C111.58 35.4102 113.32 34.4902 115.65 34.4902C117.47 34.4902 118.99 35.2102 120.21 36.6502C121.43 38.0902 122.04 39.9902 122.04 42.3402M118.54 42.4702C118.54 40.9702 118.2 39.7202 117.52 38.7502C116.78 37.7302 115.78 37.2202 114.53 37.2202C113.68 37.2202 112.91 37.5002 112.22 38.0602C111.53 38.6302 111.08 39.3602 110.87 40.2702C110.76 40.7002 110.71 41.0402 110.71 41.3202V43.9002C110.71 45.0202 111.05 45.9702 111.74 46.7402C112.43 47.5202 113.32 47.9002 114.43 47.9002C115.72 47.9002 116.73 47.4102 117.45 46.4102C118.17 45.4102 118.53 44.1002 118.53 42.4602" fill="white"/>
<path id="Vector_22" d="M141.92 44.27C141.92 46.09 141.29 47.58 140.01 48.72C138.61 49.97 136.67 50.6 134.17 50.6C131.86 50.6 130.01 50.16 128.61 49.27L129.41 46.41C130.92 47.32 132.57 47.78 134.38 47.78C135.67 47.78 136.68 47.49 137.4 46.91C138.12 46.32 138.48 45.54 138.48 44.57C138.48 43.7 138.18 42.97 137.59 42.37C137 41.77 136.01 41.22 134.63 40.71C130.88 39.31 129 37.26 129 34.56C129 32.8 129.66 31.35 130.97 30.23C132.28 29.1 134.03 28.54 136.22 28.54C138.17 28.54 139.79 28.88 141.08 29.56L140.22 32.36C139.01 31.7 137.64 31.37 136.12 31.37C134.91 31.37 133.97 31.67 133.29 32.26C132.72 32.79 132.43 33.44 132.43 34.2C132.43 35.05 132.76 35.75 133.41 36.3C133.98 36.81 135.02 37.36 136.53 37.96C138.37 38.7 139.73 39.57 140.6 40.57C141.47 41.57 141.9 42.81 141.9 44.29" fill="white"/>
<path id="Vector_23" d="M153.27 37.4002H149.49V44.9102C149.49 46.8202 150.16 47.7702 151.5 47.7702C152.11 47.7702 152.62 47.7202 153.02 47.6102L153.11 50.2202C152.44 50.4702 151.54 50.6002 150.44 50.6002C149.08 50.6002 148.02 50.1902 147.26 49.3602C146.5 48.5302 146.11 47.1402 146.11 45.1902V37.4002H143.85V34.8202H146.11V31.9902L149.48 30.9702V34.8202H153.26V37.4002H153.27Z" fill="white"/>
<path id="Vector_24" d="M170.35 42.4303C170.35 44.8103 169.67 46.7603 168.32 48.2803C166.9 49.8503 165.01 50.6303 162.66 50.6303C160.31 50.6303 158.58 49.8803 157.24 48.3703C155.89 46.8703 155.22 44.9703 155.22 42.6803C155.22 40.2803 155.91 38.3203 157.3 36.8003C158.69 35.2703 160.56 34.5103 162.91 34.5103C165.26 34.5103 167 35.2603 168.38 36.7703C169.7 38.2403 170.35 40.1203 170.35 42.4303ZM166.79 42.5403C166.79 41.1203 166.48 39.8903 165.87 38.8703C165.15 37.6403 164.12 37.0203 162.79 37.0203C161.46 37.0203 160.36 37.6403 159.64 38.8703C159.02 39.8903 158.72 41.1303 158.72 42.6003C158.72 44.0703 159.02 45.2503 159.64 46.2703C160.38 47.5003 161.42 48.1203 162.76 48.1203C164.1 48.1203 165.1 47.4903 165.84 46.2403C166.48 45.2003 166.79 43.9703 166.79 42.5403Z" fill="white"/>
<path id="Vector_25" d="M181.51 37.8503C181.17 37.7903 180.81 37.7603 180.43 37.7603C179.22 37.7603 178.29 38.2203 177.63 39.1303C177.06 39.9403 176.77 40.9503 176.77 42.1803V50.2903H173.34L173.37 39.7003C173.37 37.9203 173.33 36.3003 173.24 34.8303H176.23L176.36 37.7903H176.45C176.81 36.7703 177.39 35.9503 178.17 35.3403C178.93 34.7903 179.76 34.5103 180.65 34.5103C180.97 34.5103 181.25 34.5303 181.51 34.5703V37.8503Z" fill="white"/>
<path id="Vector_26" d="M196.87 41.82C196.87 42.44 196.83 42.95 196.75 43.38H186.45C186.49 44.91 186.99 46.07 187.94 46.88C188.81 47.6 189.93 47.96 191.31 47.96C192.83 47.96 194.22 47.72 195.48 47.23L196.02 49.62C194.56 50.26 192.83 50.58 190.83 50.58C188.44 50.58 186.55 49.87 185.19 48.46C183.83 47.05 183.14 45.16 183.14 42.78C183.14 40.4 183.78 38.51 185.05 36.96C186.38 35.31 188.19 34.48 190.45 34.48C192.71 34.48 194.37 35.31 195.51 36.96C196.42 38.28 196.87 39.9 196.87 41.83M193.6 40.94C193.62 39.92 193.4 39.04 192.93 38.3C192.34 37.35 191.42 36.87 190.19 36.87C189.07 36.87 188.16 37.34 187.46 38.27C186.89 39.01 186.55 39.9 186.45 40.94H193.6Z" fill="white"/>
</g>
</g>
</g>
<defs>
<clipPath id="clip0_44_81">
<rect width="217.61" height="64.05" fill="white"/>
</clipPath>
</defs>
</svg>
