<svg width="218" height="65" viewBox="0 0 218 65" fill="none" xmlns="http://www.w3.org/2000/svg">
<g id="Google_Play" clipPath="url(#clip0_44_113)">
<g id="Group">
<path id="Vector" d="M209.43 0.810059H8.19006C4.1142 0.810059 0.810059 4.1142 0.810059 8.19006V55.8701C0.810059 59.9459 4.1142 63.2501 8.19006 63.2501H209.43C213.506 63.2501 216.81 59.9459 216.81 55.8701V8.19006C216.81 4.1142 213.506 0.810059 209.43 0.810059Z" fill="black"/>
<path id="Vector_2" d="M209.43 64.05H8.19C3.67 64.05 0 60.38 0 55.86V8.19C0 3.67 3.67 0 8.19 0H209.43C213.95 0 217.62 3.67 217.62 8.19V55.86C217.62 60.38 213.95 64.05 209.43 64.05ZM8.19 1.62C4.57 1.62 1.62 4.57 1.62 8.2V55.87C1.62 59.49 4.57 62.44 8.19 62.44H209.43C213.05 62.44 216 59.49 216 55.87V8.19C216 4.56 213.05 1.61 209.43 1.61H8.19V1.62Z" fill="#A7A9AC"/>
</g>
<g id="Group_2">
<path id="Vector_3" d="M109.78 35.0302C106 35.0302 102.91 37.9102 102.91 41.8702C102.91 45.8302 105.99 48.7102 109.78 48.7102C113.57 48.7102 116.65 45.8102 116.65 41.8702C116.65 37.9302 113.57 35.0302 109.78 35.0302ZM109.78 46.0202C107.71 46.0202 105.92 44.3102 105.92 41.8702C105.92 39.4302 107.71 37.7202 109.78 37.7202C111.85 37.7202 113.64 39.4002 113.64 41.8702C113.64 44.3402 111.85 46.0202 109.78 46.0202ZM94.8 35.0302C91.02 35.0302 87.93 37.9102 87.93 41.8702C87.93 45.8302 91.01 48.7102 94.8 48.7102C98.59 48.7102 101.67 45.8102 101.67 41.8702C101.67 37.9302 98.59 35.0302 94.8 35.0302ZM94.8 46.0202C92.73 46.0202 90.94 44.3102 90.94 41.8702C90.94 39.4302 92.73 37.7202 94.8 37.7202C96.87 37.7202 98.66 39.4002 98.66 41.8702C98.66 44.3402 96.87 46.0202 94.8 46.0202ZM76.98 37.1302V40.0302H83.92C83.71 41.6602 83.17 42.8502 82.34 43.6802C81.33 44.6902 79.75 45.8002 76.98 45.8002C72.7 45.8002 69.36 42.3502 69.36 38.0802C69.36 33.8102 72.7 30.3602 76.98 30.3602C79.29 30.3602 80.97 31.2702 82.21 32.4302L84.26 30.3802C82.52 28.7202 80.22 27.4502 76.98 27.4502C71.12 27.4502 66.2 32.2202 66.2 38.0702C66.2 43.9202 71.12 48.6902 76.98 48.6902C80.14 48.6902 82.53 47.6502 84.39 45.7102C86.31 43.7902 86.9 41.1002 86.9 38.9202C86.9 38.2502 86.85 37.6202 86.74 37.1102H76.97L76.98 37.1302ZM149.85 39.3802C149.28 37.8502 147.54 35.0302 143.99 35.0302C140.44 35.0302 137.54 37.8002 137.54 41.8702C137.54 45.7002 140.44 48.7102 144.33 48.7102C147.47 48.7102 149.28 46.7902 150.03 45.6802L147.7 44.1302C146.92 45.2702 145.86 46.0202 144.33 46.0202C142.8 46.0202 141.71 45.3202 141.01 43.9502L150.16 40.1702L149.85 39.3902V39.3802ZM140.52 41.6602C140.44 39.0202 142.57 37.6702 144.1 37.6702C145.29 37.6702 146.3 38.2702 146.64 39.1202L140.53 41.6602H140.52ZM133.08 48.2902H136.09V28.1802H133.08V48.2902ZM128.16 36.5502H128.06C127.39 35.7502 126.09 35.0202 124.46 35.0202C121.04 35.0202 117.9 38.0302 117.9 41.8902C117.9 45.7502 121.04 48.7002 124.46 48.7002C126.09 48.7002 127.39 47.9702 128.06 47.1502H128.16V48.1302C128.16 50.7502 126.76 52.1502 124.51 52.1502C122.67 52.1502 121.53 50.8302 121.06 49.7102L118.44 50.8002C119.19 52.6102 121.19 54.8402 124.5 54.8402C128.02 54.8402 131 52.7702 131 47.7102V35.4302H128.15V36.5402L128.16 36.5502ZM124.71 46.0102C122.64 46.0102 120.9 44.2702 120.9 41.8902C120.9 39.5102 122.64 37.7202 124.71 37.7202C126.78 37.7202 128.36 39.4802 128.36 41.8902C128.36 44.3002 126.75 46.0102 124.71 46.0102ZM163.92 28.1802H156.73V48.2902H159.73V40.6702H163.92C167.25 40.6702 170.52 38.2602 170.52 34.4302C170.52 30.6002 167.25 28.1902 163.92 28.1902V28.1802ZM164 37.8702H159.73V30.9802H164C166.24 30.9802 167.52 32.8402 167.52 34.4302C167.52 36.0202 166.25 37.8802 164 37.8802V37.8702ZM182.55 34.9802C180.38 34.9802 178.13 35.9402 177.2 38.0602L179.86 39.1702C180.43 38.0602 181.49 37.7002 182.6 37.7002C184.15 37.7002 185.73 38.6302 185.76 40.2902V40.5002C185.22 40.1902 184.05 39.7202 182.63 39.7202C179.76 39.7202 176.84 41.3002 176.84 44.2502C176.84 46.9402 179.19 48.6702 181.83 48.6702C183.85 48.6702 184.96 47.7602 185.66 46.7002H185.76V48.2502H188.66V40.5402C188.66 36.9702 186 34.9802 182.56 34.9802H182.55ZM182.19 46.0002C181.21 46.0002 179.84 45.5102 179.84 44.2902C179.84 42.7402 181.55 42.1402 183.02 42.1402C184.34 42.1402 184.96 42.4202 185.76 42.8102C185.53 44.6702 183.92 45.9902 182.19 45.9902V46.0002ZM199.21 35.4202L195.77 44.1402H195.67L192.1 35.4202H188.87L194.22 47.6002L191.17 54.3802H194.3L202.55 35.4202H199.21ZM172.18 48.2802H175.18V28.1702H172.18V48.2802Z" fill="white"/>
<g id="Group_3">
<path id="Vector_4" d="M16.97 12.1798C16.5 12.6698 16.23 13.4398 16.23 14.4398V49.9798C16.23 50.9798 16.51 51.7398 16.97 52.2398L17.09 52.3598L37 32.4498V31.9798L17.09 12.0698L16.97 12.1898V12.1798Z" fill="#5BC9F4"/>
<path id="Vector_5" d="M43.64 39.0898L37 32.4498V31.9798L43.64 25.3398L43.79 25.4298L51.65 29.8998C53.9 31.1798 53.9 33.2598 51.65 34.5398L43.79 39.0098L43.64 39.0998V39.0898Z" fill="url(#paint0_linear_44_113)"/>
<path id="Vector_6" d="M43.79 39L37 32.21L16.97 52.24C17.71 53.02 18.93 53.12 20.31 52.34L43.79 39Z" fill="url(#paint1_linear_44_113)"/>
<path id="Vector_7" d="M43.79 25.42L20.31 12.08C18.93 11.3 17.71 11.39 16.97 12.18L37 32.21L43.79 25.42Z" fill="url(#paint2_linear_44_113)"/>
</g>
</g>
<g id="Group_4">
<path id="Vector_8" d="M73.9301 13.3202C73.3301 12.7802 72.5301 12.4402 71.6501 12.4402C69.6701 12.4402 68.1501 14.0702 68.1501 16.0802C68.1501 18.0902 69.6701 19.7002 71.6501 19.7002C73.3501 19.7002 74.5901 18.7102 74.6701 17.1502H71.9801V16.0402H76.1301C76.1301 19.3602 74.3601 20.9302 71.6501 20.9302C68.9401 20.9302 66.8701 18.7602 66.8701 16.0802C66.8701 13.4002 68.9601 11.2202 71.6501 11.2202C72.9001 11.2202 74.0301 11.7002 74.8501 12.4702L73.9301 13.3202Z" fill="white"/>
<path id="Vector_9" d="M83.4701 11.3301V12.5201H79.1401V15.5401H82.9201V16.7401H79.1401V19.6001H83.6001V20.7901H77.8601V11.3301H83.4601H83.4701Z" fill="white"/>
<path id="Vector_10" d="M91.7502 11.3301V12.5401H88.8802V20.7901H87.5902V12.5401H84.7202V11.3301H91.7502Z" fill="white"/>
<path id="Vector_11" d="M97.8801 11.3301V20.7901H96.6001V11.3301H97.8801Z" fill="white"/>
<path id="Vector_12" d="M106.59 11.3301V12.5401H103.72V20.7901H102.43V12.5401H99.5601V11.3301H106.59Z" fill="white"/>
<path id="Vector_13" d="M115.6 11.2202C118.31 11.2202 120.41 13.3902 120.41 16.0802C120.41 18.7702 118.31 20.9302 115.6 20.9302C112.89 20.9302 110.82 18.7602 110.82 16.0802C110.82 13.4002 112.91 11.2202 115.6 11.2202ZM115.6 19.6902C117.59 19.6902 119.12 18.0802 119.12 16.0802C119.12 14.0802 117.6 12.4502 115.6 12.4502C113.6 12.4502 112.1 14.0702 112.1 16.0802C112.1 18.0902 113.62 19.6902 115.6 19.6902Z" fill="white"/>
<path id="Vector_14" d="M127.96 20.7901L123.65 13.6601V20.7901H122.37V11.3301H123.63L127.9 18.4001V11.3301H129.18V20.7901H127.96Z" fill="white"/>
</g>
</g>
<defs>
<linearGradient id="paint0_linear_44_113" x1="50.19" y1="32.2098" x2="11.3" y2="32.2098" gradientUnits="userSpaceOnUse">
<stop stop-color="#FEE000"/>
<stop offset="0.42" stop-color="#FBBC0E"/>
<stop offset="0.78" stop-color="#F9A318"/>
<stop offset="1" stop-color="#F99B1C"/>
</linearGradient>
<linearGradient id="paint1_linear_44_113" x1="40.1" y1="35.9" x2="3.52997" y2="72.47" gradientUnits="userSpaceOnUse">
<stop stop-color="#EF4547"/>
<stop offset="1" stop-color="#C6186D"/>
</linearGradient>
<linearGradient id="paint2_linear_44_113" x1="3.35997" y1="-8.21004" x2="33.22" y2="21.65" gradientUnits="userSpaceOnUse">
<stop stop-color="#279E6F"/>
<stop offset="0.04" stop-color="#2B9F6E"/>
<stop offset="0.46" stop-color="#52B16B"/>
<stop offset="0.8" stop-color="#6BBC69"/>
<stop offset="1" stop-color="#74C169"/>
</linearGradient>
<clipPath id="clip0_44_113">
<rect width="217.61" height="64.05" fill="white"/>
</clipPath>
</defs>
</svg>
