<svg width="398" height="442" viewBox="0 0 398 442" fill="none" xmlns="http://www.w3.org/2000/svg">
<g clipPath="url(#clip0_165_65)">
<path d="M79.101 290.842H306.347C312.379 290.842 317.259 285.938 317.259 279.931V10.9109C317.259 4.87924 312.355 0 306.347 0H79.101C73.0692 0 68.1898 4.90375 68.1898 10.9109V279.931C68.1898 285.962 73.0937 290.842 79.101 290.842ZM306.347 1.07883C311.791 1.07883 316.204 5.49221 316.204 10.9354V279.955C316.204 285.399 311.791 289.812 306.347 289.812H79.101C73.6576 289.812 69.2441 285.399 69.2441 279.955V10.9109C69.2441 5.46769 73.6576 1.05431 79.101 1.05431H306.347V1.07883Z" fill="#221B8C"/>
<path d="M68.7047 104.401C68.999 104.401 69.2441 104.156 69.2441 103.862V71.1781C69.2441 70.8839 68.999 70.6387 68.7047 70.6387C68.4105 70.6387 68.1653 70.8839 68.1653 71.1781V103.862C68.1653 104.156 68.4105 104.401 68.7047 104.401Z" fill="#221B8C"/>
<path d="M175.659 276.498H302.964C303.258 276.498 303.503 276.253 303.503 275.959V14.8829C303.503 14.5887 303.258 14.3435 302.964 14.3435H175.659C175.364 14.3435 175.119 14.5887 175.119 14.8829V275.959C175.119 276.253 175.364 276.498 175.659 276.498ZM302.424 275.444H176.198V15.4223H302.424V275.444Z" fill="#221B8C"/>
<path d="M82.4846 276.498H162.541C162.835 276.498 163.08 276.253 163.08 275.959V14.8829C163.08 14.5887 162.835 14.3435 162.541 14.3435H82.4846C82.1904 14.3435 81.9452 14.5887 81.9452 14.8829V275.959C81.9452 276.253 82.1904 276.498 82.4846 276.498ZM162.001 275.444H83.024V15.4223H162.001V275.444Z" fill="#221B8C"/>
<path d="M51.9825 293.515H340.037V304.891H51.9825V293.515Z" fill="white"/>
<path d="M51.9825 305.455H340.037C340.331 305.455 340.577 305.21 340.577 304.916V293.539C340.577 293.245 340.331 293 340.037 293H51.9825C51.6883 293 51.4431 293.245 51.4431 293.539V304.916C51.4431 305.21 51.6883 305.455 51.9825 305.455ZM339.498 304.376H52.522V294.054H339.498V304.376Z" fill="#221B8C"/>
<path d="M84.3974 264.705C85.182 264.436 86.0402 264.288 86.9474 264.288H89.0315V258.379H125.369V279.564C125.369 287.925 118.577 294.716 110.216 294.716H104.185C96.2157 294.716 89.6936 288.562 89.0806 280.765H86.9474C82.4603 280.765 79.1257 276.891 79.1257 272.404V272.331C79.1257 268.726 81.2589 265.76 84.3974 264.705ZM87.2661 276.057H89.0561V268.996H87.2661C85.3291 268.996 83.7844 270.59 83.7844 272.527C83.7844 274.464 85.3536 276.057 87.2661 276.057Z" fill="white"/>
<path d="M104.209 295.255H110.241C118.896 295.255 125.933 288.219 125.933 279.563V258.379C125.933 258.085 125.688 257.84 125.394 257.84H89.0561C88.7618 257.84 88.5166 258.085 88.5166 258.379V263.749H86.9474C85.9911 263.749 85.0839 263.896 84.2257 264.19C80.793 265.343 78.5863 268.53 78.5863 272.33V272.404C78.5863 277.308 82.3377 281.304 86.9474 281.304H88.6147C89.4729 289.175 96.2403 295.255 104.209 295.255ZM124.854 258.919V279.563C124.854 287.63 118.308 294.177 110.241 294.177H104.209C96.6326 294.177 90.233 288.268 89.6445 280.716C89.6445 280.446 89.3993 280.225 89.1051 280.225H86.9719C82.8771 280.225 79.6651 276.793 79.6651 272.379V272.306C79.6651 268.971 81.6021 266.176 84.569 265.171C85.3291 264.926 86.1382 264.779 86.9474 264.779H89.0315C89.3258 264.779 89.571 264.533 89.571 264.239V258.87H124.83L124.854 258.919ZM87.2661 276.597H89.0561C89.3503 276.597 89.5955 276.352 89.5955 276.057V268.996C89.5955 268.702 89.3503 268.456 89.0561 268.456H87.2661C85.0594 268.456 83.2449 270.271 83.2449 272.527C83.2449 274.782 85.0594 276.597 87.2661 276.597ZM88.5166 275.518H87.2661C85.6479 275.518 84.3238 274.169 84.3238 272.527C84.3238 270.884 85.6479 269.535 87.2661 269.535H88.5166V275.518Z" fill="#221B8C"/>
<path d="M104.209 295.255H110.241C118.896 295.255 125.933 288.219 125.933 279.563V258.379C125.933 258.085 125.688 257.84 125.394 257.84C125.1 257.84 124.854 258.085 124.854 258.379V279.563C124.854 287.63 118.308 294.177 110.241 294.177H104.209C96.6326 294.177 90.233 288.268 89.6445 280.716C89.6445 280.446 89.3993 280.225 89.1051 280.225H86.9719C82.8771 280.225 79.6651 276.793 79.6651 272.379V272.306C79.6651 270.761 80.0819 269.315 80.8666 268.089C81.0382 267.843 80.9647 267.5 80.6949 267.353C80.4497 267.181 80.1065 267.255 79.9593 267.525C79.0521 268.922 78.5863 270.59 78.5863 272.33V272.404C78.5863 277.308 82.3377 281.304 86.9474 281.304H88.6147C89.4729 289.175 96.2403 295.255 104.209 295.255ZM87.4132 276.597H88.5657C89.1296 276.597 89.5955 276.131 89.5955 275.567V269.486C89.5955 268.922 89.1296 268.456 88.5657 268.456H87.2661C86.1382 268.456 85.0594 268.947 84.2993 269.805C83.5147 270.663 83.1469 271.816 83.2695 272.968C83.4901 275.028 85.2801 276.572 87.4132 276.572V276.597ZM88.5166 275.518H87.4132C85.844 275.518 84.4954 274.341 84.3238 272.845C84.2257 271.987 84.4954 271.129 85.0839 270.492C85.6479 269.854 86.4325 269.511 87.2661 269.511H88.5166V275.493V275.518ZM84.3974 265.245C84.3974 265.245 84.52 265.245 84.569 265.22C85.3291 264.975 86.1382 264.828 86.9474 264.828H88.5412C89.1051 264.828 89.571 264.362 89.571 263.798V258.919H119.068C119.362 258.919 119.607 258.673 119.607 258.379C119.607 258.085 119.362 257.84 119.068 257.84H89.5465C88.9825 257.84 88.5166 258.306 88.5166 258.87V263.749H86.9474C85.9911 263.749 85.0839 263.896 84.2257 264.19C83.956 264.288 83.7844 264.582 83.8825 264.877C83.956 265.097 84.1767 265.245 84.3974 265.245Z" fill="#221B8C"/>
<path d="M107.174 281.988C103.437 281.977 100.415 278.939 100.426 275.202C100.436 271.464 103.474 268.443 107.212 268.453C110.949 268.464 113.971 271.502 113.96 275.239C113.95 278.977 110.912 281.998 107.174 281.988Z" fill="white"/>
<path d="M107.225 282.53C111.246 282.53 114.507 279.269 114.507 275.248C114.507 271.227 111.246 267.966 107.225 267.966C103.204 267.966 99.9428 271.227 99.9428 275.248C99.9428 279.269 103.204 282.53 107.225 282.53ZM107.225 269.02C110.658 269.02 113.453 271.815 113.453 275.248C113.453 278.681 110.658 281.476 107.225 281.476C103.792 281.476 100.997 278.681 100.997 275.248C100.997 271.815 103.792 269.02 107.225 269.02Z" fill="#221B8C"/>
<path d="M105.876 252.617C105.876 252.617 106.073 252.593 106.171 252.544C106.244 252.495 108.23 251.195 108.721 248.792C109.039 247.198 108.623 245.507 107.47 243.79C104.307 239.107 105.337 237.048 106.44 234.866L106.538 234.694C106.661 234.424 106.563 234.105 106.293 233.983C106.023 233.86 105.705 233.958 105.582 234.228L105.484 234.4C104.356 236.655 103.081 239.205 106.587 244.403C107.593 245.874 107.961 247.272 107.691 248.596C107.299 250.533 105.607 251.661 105.607 251.661C105.361 251.833 105.288 252.151 105.46 252.396C105.558 252.544 105.729 252.642 105.901 252.642L105.876 252.617Z" fill="#221B8C"/>
<path d="M41.807 72.6492H62.9428C65.2721 57.8153 78.0958 46.4631 93.5676 46.4631C97.5397 46.4631 101.34 47.2232 104.847 48.5963C112.717 34.3754 127.895 24.7395 145.304 24.7395C170.828 24.7395 191.523 45.4333 191.523 70.9574C191.523 71.5213 191.523 72.0853 191.474 72.6492H193.632C211.457 72.6492 225.899 87.0908 225.899 104.916C225.899 122.741 211.457 137.183 193.632 137.183H41.7825C23.9568 137.183 9.51485 122.741 9.51485 104.916C9.51485 87.0908 23.9568 72.6492 41.7825 72.6492H41.807Z" fill="white"/>
<path d="M41.807 137.697H193.656C211.751 137.697 226.463 122.986 226.463 104.891C226.463 86.7965 211.751 72.0852 193.656 72.0852H192.062C192.062 71.6929 192.062 71.3251 192.062 70.9328C192.062 45.1391 171.074 24.1755 145.304 24.1755C128.459 24.1755 112.913 33.2475 104.601 47.9097C101.071 46.5857 97.3436 45.9237 93.5676 45.9237C85.9911 45.9237 78.6843 48.6453 72.9713 53.5736C67.4299 58.3547 63.7274 64.9257 62.4769 72.0852H41.807C23.7117 72.0852 8.99997 86.7965 8.99997 104.891C8.99997 122.986 23.7117 137.697 41.807 137.697ZM193.656 73.1886C211.138 73.1886 225.384 87.4095 225.384 104.916C225.384 122.422 211.163 136.643 193.656 136.643H41.807C24.3246 136.643 10.0788 122.422 10.0788 104.916C10.0788 87.4095 24.3001 73.1886 41.807 73.1886H62.9428C63.2125 73.1886 63.4332 72.9924 63.4822 72.7472C65.8116 57.8398 78.4881 47.027 93.5921 47.027C97.3927 47.027 101.144 47.7381 104.675 49.1111C104.92 49.2092 105.214 49.1111 105.337 48.8659C113.404 34.3263 128.729 25.2789 145.328 25.2789C170.534 25.2789 191.008 45.7766 191.008 70.9574C191.008 71.4723 191.008 71.9871 190.959 72.502V72.6246C190.959 72.7718 191.008 72.9189 191.106 73.0169C191.204 73.115 191.351 73.1886 191.498 73.1886H193.656Z" fill="#221B8C"/>
<path d="M151.09 403.432C151.09 403.432 138.708 428.441 124.781 440.455C122.427 442.49 118.773 441.362 117.891 438.395C117.376 436.679 116.885 434.374 116.469 431.334C114.924 419.908 125.198 390.191 125.198 390.191L129.758 388.72C131.352 388.205 133.068 389.186 133.412 390.829L133.877 393.06L139.37 388.23C140.62 387.127 142.533 387.298 143.587 388.598C145.696 391.27 148.957 396.223 151.041 403.456L151.09 403.432Z" fill="white"/>
<path d="M122.035 442C123.163 442 124.266 441.607 125.149 440.847C138.978 428.907 151.458 403.922 151.581 403.652C151.63 403.53 151.654 403.407 151.605 403.26C149.545 396.125 146.382 391.148 144.078 388.23C143.489 387.494 142.631 387.029 141.699 386.931C140.743 386.832 139.836 387.151 139.1 387.789L134.294 392.03L134 390.706C133.804 389.775 133.216 388.966 132.382 388.475C131.548 388.009 130.567 387.887 129.66 388.181L125.1 389.652C124.928 389.701 124.805 389.824 124.756 389.995C124.339 391.221 114.458 419.982 116.003 431.383C116.371 434.178 116.861 436.581 117.425 438.518C117.891 440.112 119.117 441.338 120.711 441.804C121.152 441.926 121.618 442 122.059 442H122.035ZM150.526 403.383C149.349 405.687 137.482 428.784 124.438 440.038C123.481 440.872 122.206 441.142 120.98 440.774C119.754 440.406 118.798 439.45 118.43 438.224C117.866 436.336 117.4 433.982 117.033 431.236C115.611 420.619 124.683 393.502 125.664 390.584L129.979 389.186C130.592 388.99 131.278 389.064 131.842 389.382C132.406 389.701 132.799 390.265 132.946 390.903L133.412 393.134C133.461 393.33 133.583 393.477 133.755 393.526C133.927 393.575 134.123 393.526 134.27 393.428L139.762 388.598C140.253 388.157 140.89 387.96 141.552 388.009C142.214 388.058 142.778 388.377 143.195 388.892C145.426 391.712 148.467 396.493 150.477 403.358L150.526 403.383Z" fill="#221B8C"/>
<path d="M120.907 437.979C121.054 437.979 121.176 437.93 121.274 437.832C135.422 423.611 147.265 401.372 147.388 401.151C147.535 400.882 147.437 400.563 147.167 400.44C146.897 400.293 146.579 400.391 146.456 400.661C146.333 400.882 134.564 422.998 120.514 437.096C120.294 437.317 120.318 437.635 120.514 437.856C120.612 437.954 120.76 438.003 120.882 438.003L120.907 437.979Z" fill="#221B8C"/>
<path d="M126.938 418.462C127.159 418.462 127.38 418.315 127.453 418.094C127.551 417.824 127.404 417.505 127.11 417.407L119.705 414.98C119.436 414.882 119.117 415.029 119.019 415.323C118.921 415.593 119.068 415.912 119.362 416.01L126.767 418.437C126.767 418.437 126.889 418.462 126.938 418.462Z" fill="#221B8C"/>
<path d="M131.818 410.542C132.039 410.542 132.259 410.395 132.333 410.174C132.431 409.905 132.284 409.586 131.99 409.488L122.697 406.423C122.427 406.325 122.108 406.472 122.01 406.766C121.912 407.036 122.059 407.355 122.353 407.453L131.646 410.517C131.646 410.517 131.769 410.542 131.818 410.542Z" fill="#221B8C"/>
<path d="M252.233 215.692C251.277 214.686 183.431 185.362 155.675 179.134C127.944 172.906 117.597 172.833 108.157 188.696C98.7167 204.56 153.616 291.038 153.616 291.038L270.427 260.585L252.209 215.667L252.233 215.692Z" fill="#EB4623"/>
<path d="M186.496 249.086C186.496 249.086 186.643 249.086 186.717 249.037C186.987 248.915 187.109 248.596 186.987 248.326C173.942 219.198 152.39 198.406 152.169 198.185C151.948 197.989 151.605 197.989 151.409 198.185C151.213 198.406 151.213 198.749 151.409 198.945C151.629 199.141 173.01 219.835 185.981 248.743C186.079 248.939 186.275 249.062 186.472 249.062L186.496 249.086Z" fill="white"/>
<path d="M307.77 254.431C307.77 254.431 304.705 285.962 297.864 292.509C291.047 299.055 209.226 292.509 209.226 292.509C209.226 292.509 202.728 303.15 198.486 331.641C194.244 360.107 189.488 398.43 182.451 407.796L121.176 394.58C121.176 394.58 141.503 272.624 155.602 256.049C169.725 239.475 272.412 236.851 272.412 236.851L307.745 254.456L307.77 254.431Z" fill="#EB4623"/>
<path d="M148.54 271.521C148.761 271.521 148.957 271.374 149.055 271.153C151.63 263.773 153.983 258.796 156.043 256.368C160.824 250.753 182.009 245.629 217.293 241.559C217.587 241.534 217.808 241.265 217.759 240.97C217.734 240.676 217.464 240.48 217.17 240.505C181.102 244.673 160.26 249.773 155.234 255.682C153.076 258.207 150.673 263.307 148.05 270.81C147.952 271.079 148.099 271.398 148.368 271.496C148.417 271.496 148.491 271.521 148.54 271.521Z" fill="white"/>
<path d="M194.367 151.207C196.549 149.613 199.59 150.177 201.085 152.433C208.711 164.08 229.847 196.297 230.092 197.106L219.499 198.602L193.19 157.582C191.841 155.498 192.356 152.703 194.367 151.232V151.207Z" fill="white"/>
<path d="M219.499 199.117C219.499 199.117 219.548 199.117 219.573 199.117L230.165 197.621C230.312 197.621 230.46 197.499 230.533 197.376C230.607 197.253 230.631 197.082 230.582 196.935C230.337 196.15 214.645 172.146 201.527 152.139C200.742 150.937 199.516 150.128 198.094 149.859C196.672 149.589 195.225 149.932 194.073 150.79C191.841 152.433 191.253 155.522 192.749 157.852L219.058 198.872C219.156 199.019 219.328 199.117 219.499 199.117ZM229.234 196.69L219.769 198.014L193.631 157.263C192.454 155.4 192.896 152.948 194.686 151.649C195.617 150.962 196.77 150.692 197.898 150.913C199.026 151.109 200.006 151.771 200.644 152.727C216.778 177.344 227.198 193.355 229.234 196.69Z" fill="#221B8C"/>
<path d="M338.247 248.375C338.247 248.375 349.232 233.002 344.745 198.602C340.233 164.178 329.224 146.328 317.7 142.233C306.176 138.163 258.78 145.617 255.077 203.432L338.247 248.375Z" fill="#221B8C"/>
<path d="M338.247 248.915C338.419 248.915 338.591 248.841 338.689 248.694C338.811 248.547 349.747 232.757 345.284 198.528C341.19 167.144 331.186 146.451 317.896 141.743C311.742 139.561 296.074 140.664 282 149.957C270.574 157.509 256.524 172.906 254.562 203.408C254.562 203.628 254.66 203.824 254.832 203.923L338.002 248.865C338.002 248.865 338.174 248.939 338.247 248.939V248.915ZM310.81 141.817C313.605 141.817 315.91 142.16 317.528 142.724C323.413 144.808 328.905 150.521 333.392 159.274C338.443 169.155 342.097 182.395 344.23 198.651C348.276 229.496 339.694 245.041 338.1 247.664L255.666 203.113C257.676 173.274 271.407 158.195 282.588 150.815C292.592 144.219 303.381 141.817 310.81 141.817Z" fill="#221B8C"/>
<path d="M305.121 224.052C305.391 224.052 305.636 223.832 305.661 223.562L307.941 191.295C307.941 191.001 307.745 190.756 307.451 190.731C307.157 190.731 306.911 190.928 306.887 191.222L304.607 223.489C304.607 223.783 304.803 224.028 305.097 224.052C305.097 224.052 305.121 224.052 305.146 224.052H305.121Z" fill="#221B8C"/>
<path d="M342.244 239.524C342.244 239.524 338.247 268.431 297.864 258.747C257.48 249.062 236.418 211.523 236.418 211.523C236.418 211.523 212.904 206.497 213.688 191.246C213.688 191.246 221.559 193.355 228.253 191.246C234.947 189.138 242.204 191.295 244.975 193.919C264.076 211.842 325.08 217.212 342.244 239.548V239.524Z" fill="white"/>
<path d="M313.115 261.272C320.642 261.272 326.944 259.556 331.995 256.099C341.263 249.773 342.71 240.014 342.783 239.597C342.783 239.45 342.783 239.303 342.685 239.205C333.245 226.921 310.884 219.786 289.257 212.872C271.113 207.085 253.974 201.593 245.368 193.527C242.205 190.56 234.726 188.672 228.106 190.756C221.633 192.791 213.909 190.756 213.836 190.756C213.688 190.707 213.517 190.756 213.394 190.83C213.272 190.928 213.174 191.075 213.174 191.246C212.389 206.129 233.451 211.425 236.075 212.038C236.933 213.485 242.205 222.263 251.62 231.923C261.085 241.632 276.753 254.284 297.741 259.31C303.332 260.634 308.456 261.321 313.115 261.321V261.272ZM341.68 239.671C341.41 241.142 339.522 249.675 331.382 255.24C323.462 260.634 312.232 261.64 297.986 258.232C258.289 248.718 237.08 211.646 236.884 211.278C236.81 211.156 236.688 211.058 236.541 211.008C236.32 210.959 214.154 206.056 214.228 191.908C216.288 192.374 222.712 193.551 228.449 191.737C235.045 189.653 242.082 191.884 244.657 194.287C253.459 202.525 270.696 208.042 288.963 213.877C310.32 220.693 332.412 227.755 341.729 239.671H341.68Z" fill="#221B8C"/>
<path d="M228.081 198.283C228.743 198.283 229.405 198.283 230.116 198.234C230.411 198.234 230.631 197.964 230.631 197.67C230.631 197.376 230.386 197.155 230.067 197.155C218.274 197.621 214.252 193.723 214.228 193.698C214.032 193.478 213.688 193.478 213.468 193.698C213.247 193.894 213.247 194.238 213.468 194.458C213.639 194.63 217.342 198.283 228.081 198.283Z" fill="#221B8C"/>
<path d="M229.307 203.898C229.577 203.898 229.822 203.898 230.092 203.898C230.386 203.898 230.631 203.653 230.607 203.359C230.607 203.064 230.362 202.819 230.067 202.844C219.794 203.04 216.483 199.386 216.434 199.362C216.238 199.141 215.895 199.117 215.674 199.313C215.454 199.509 215.429 199.852 215.625 200.073C215.772 200.245 219.132 203.947 229.283 203.947L229.307 203.898Z" fill="#221B8C"/>
<path d="M299.335 115.459C299.629 116.023 312.551 138.09 312.551 138.09L321.451 144.072C318.166 146.573 312.355 150.324 304.239 152.482C295.951 154.689 288.914 154.223 284.795 153.659C285.163 152.531 285.751 151.06 286.805 149.54C288.448 147.112 290.41 145.69 291.66 144.93C289.012 140.37 286.34 135.809 283.691 131.224L299.31 115.459H299.335Z" fill="white"/>
<path d="M291.636 154.664C295.927 154.664 300.193 154.1 304.386 152.997C310.712 151.33 316.572 148.461 321.795 144.489C321.942 144.391 322.015 144.219 322.015 144.048C322.015 143.876 321.917 143.704 321.77 143.631L312.968 137.722C311.987 136.055 300.095 115.729 299.801 115.189C299.727 115.042 299.58 114.944 299.408 114.919C299.237 114.919 299.065 114.944 298.943 115.067L283.324 130.832C283.152 131.004 283.128 131.273 283.25 131.47L290.974 144.734C289.159 145.936 287.615 147.431 286.389 149.221C285.506 150.521 284.795 151.967 284.329 153.487C284.28 153.635 284.304 153.806 284.378 153.929C284.452 154.051 284.599 154.149 284.746 154.174C287.051 154.493 289.355 154.664 291.636 154.664ZM320.544 144.097C315.591 147.75 310.074 150.398 304.116 151.967C298.035 153.586 291.783 154.002 285.53 153.218C285.972 152.016 286.536 150.888 287.247 149.834C288.473 148.02 290.067 146.524 291.955 145.372C292.2 145.225 292.273 144.906 292.126 144.636L284.353 131.298L299.212 116.317C301.296 119.897 311.619 137.526 312.085 138.359C312.134 138.433 312.183 138.482 312.257 138.531L320.544 144.097Z" fill="#221B8C"/>
<path d="M260.202 101.336C266.16 96.4568 273.173 101.557 280.136 95.5496C283.324 92.8035 283.618 90.2045 287.443 88.7089C289.968 87.7036 294.48 87.0171 297.496 89.3218C301.321 92.2396 298.501 96.7755 301.615 106.975C303.797 114.135 306.813 117.249 305.122 119.75C303.405 122.3 299.433 120.436 297.349 123.06C294.652 126.468 299.556 131.788 298.035 136.619C296.981 139.929 291.955 144.636 279.327 146.23C278.64 144.195 276.949 140.198 275.87 136.275C272.462 123.991 274.325 119.308 271.236 117.715C266.528 115.287 260.839 122.79 257.358 120.534C253.729 118.18 254.121 106.387 260.251 101.361L260.202 101.336Z" fill="#3E3A45"/>
<path d="M284.893 107.343L283.691 110.947C283.691 110.947 288.326 122.299 289.135 126.566C289.968 130.857 276.875 134.412 276.875 134.412L274.815 132.892L271.162 133.799C271.162 133.799 271.284 121.319 267.925 112.982C267.925 112.982 274.104 105.504 284.844 107.318L284.893 107.343Z" fill="white"/>
<path d="M284.427 107.637C283.961 108.716 283.544 109.721 283.177 110.8C283.128 110.923 283.152 111.045 283.177 111.168C284.182 113.62 285.138 116.096 286.045 118.597C286.953 121.098 287.86 123.599 288.473 126.124L288.571 126.59C288.62 126.762 288.595 126.835 288.62 126.983C288.62 127.228 288.571 127.473 288.448 127.718C288.228 128.209 287.811 128.674 287.345 129.091C286.413 129.925 285.261 130.562 284.108 131.151C281.754 132.303 279.253 133.186 276.752 133.921L277.218 134.019L275.159 132.499H275.134C275.012 132.401 274.864 132.377 274.717 132.401L271.113 133.48L271.579 133.848C271.579 132.058 271.53 130.293 271.407 128.527C271.285 126.762 271.137 124.997 270.917 123.231C270.672 121.466 270.377 119.725 270.01 117.984C269.617 116.243 269.127 114.527 268.465 112.835L268.391 113.375C269.348 112.296 270.574 111.315 271.824 110.506C273.099 109.697 274.448 109.01 275.894 108.569C277.316 108.103 278.812 107.76 280.308 107.686C281.068 107.588 281.803 107.662 282.564 107.686C282.98 107.686 283.201 107.76 283.52 107.735C283.814 107.735 284.108 107.686 284.452 107.662L284.427 107.637ZM285.359 107.073C284.942 106.951 284.476 106.828 283.986 106.73C283.52 106.632 282.98 106.558 282.613 106.558C281.803 106.558 281.019 106.485 280.234 106.583C278.64 106.657 277.071 107 275.551 107.515C274.031 108.005 272.584 108.716 271.236 109.574C269.887 110.432 268.661 111.438 267.558 112.664C267.435 112.811 267.411 113.007 267.46 113.179C268.097 114.821 268.612 116.489 269.029 118.18C269.421 119.872 269.74 121.613 270.01 123.329C270.255 125.07 270.451 126.811 270.574 128.552C270.696 130.293 270.794 132.058 270.819 133.799C270.819 133.995 270.99 134.167 271.187 134.167C271.211 134.167 271.236 134.167 271.26 134.167L274.963 133.407L274.521 133.308L276.581 134.829C276.703 134.927 276.875 134.951 277.022 134.927C279.621 134.167 282.147 133.284 284.574 132.083C285.776 131.47 286.977 130.808 288.056 129.876C288.571 129.41 289.086 128.871 289.429 128.135C289.601 127.792 289.674 127.375 289.699 126.958C289.699 126.762 289.674 126.517 289.625 126.37L289.503 125.879C288.841 123.231 287.933 120.73 287.026 118.229C286.094 115.728 285.138 113.228 284.133 110.751V111.119C284.599 109.795 284.966 108.373 285.285 107.073H285.359Z" fill="#221B8C"/>
<path d="M289.306 117.371C289.306 117.371 288.154 109.084 292.053 109.354C295.927 109.623 296.957 118.793 289.306 117.371Z" fill="white"/>
<path d="M290.851 118.058C292.862 118.058 293.99 117.224 294.627 116.44C295.853 114.895 295.755 112.688 295.093 111.217C294.48 109.82 293.352 108.912 292.102 108.814C291.244 108.765 290.532 109.035 289.969 109.623C288.031 111.707 288.767 117.2 288.792 117.42C288.816 117.641 288.988 117.837 289.233 117.862C289.821 117.984 290.385 118.033 290.876 118.033L290.851 118.058ZM291.857 109.893C291.857 109.893 291.955 109.893 292.004 109.893C292.862 109.967 293.622 110.604 294.088 111.658C294.603 112.835 294.701 114.576 293.745 115.778C292.96 116.783 291.587 117.175 289.772 116.905C289.601 115.214 289.503 111.658 290.704 110.359C290.998 110.04 291.366 109.869 291.832 109.869L291.857 109.893Z" fill="#221B8C"/>
<path d="M260.3 351.746C262.899 346.401 263.144 341.032 260.3 335.589L262.335 333.137L318.141 334.976L316.229 352.703L262.212 353.316L260.3 351.746Z" fill="white"/>
<path d="M262.212 353.855L316.229 353.242C316.499 353.242 316.719 353.046 316.744 352.776L318.656 335.049C318.656 334.902 318.632 334.755 318.534 334.632C318.436 334.51 318.288 334.461 318.141 334.436L262.335 332.597C262.163 332.597 262.016 332.671 261.918 332.793L259.883 335.245C259.736 335.417 259.711 335.638 259.81 335.834C262.458 340.909 262.458 346.033 259.81 351.526C259.711 351.746 259.76 352.016 259.957 352.163L261.869 353.732C261.869 353.732 262.09 353.855 262.212 353.855ZM315.763 352.163L262.409 352.776L260.986 351.599C263.536 346.132 263.512 340.762 260.962 335.662L262.605 333.676L317.577 335.49L315.763 352.163Z" fill="#221B8C"/>
<path d="M362.865 331.175H259.27C258.069 331.175 257.088 332.156 257.088 333.358C257.088 334.559 258.069 335.54 259.27 335.54H306.887C310.369 335.54 313.213 338.359 313.213 341.866V345.421C313.213 348.902 310.393 351.747 306.887 351.747H259.27C258.069 351.747 257.088 352.727 257.088 353.929C257.088 355.13 258.069 356.111 259.27 356.111H362.865C369.289 356.111 374.511 350.889 374.511 344.465V342.797C374.511 336.373 369.289 331.151 362.865 331.151V331.175Z" fill="white"/>
<path d="M259.27 356.65H362.865C369.583 356.65 375.051 351.183 375.051 344.464V342.797C375.051 336.079 369.583 330.611 362.865 330.611H259.27C257.774 330.611 256.548 331.837 256.548 333.333C256.548 334.829 257.774 336.055 259.27 336.055H306.887C310.074 336.055 312.674 338.653 312.674 341.841V345.396C312.674 348.584 310.074 351.183 306.887 351.183H259.27C257.774 351.183 256.548 352.409 256.548 353.904C256.548 355.4 257.774 356.626 259.27 356.626V356.65ZM362.865 331.715C368.995 331.715 373.972 336.692 373.972 342.822V344.489C373.972 350.619 368.995 355.596 362.865 355.596H259.27C258.363 355.596 257.603 354.86 257.603 353.929C257.603 352.997 258.338 352.261 259.27 352.261H306.887C310.663 352.261 313.728 349.197 313.728 345.421V341.865C313.728 338.09 310.663 335.025 306.887 335.025H259.27C258.363 335.025 257.603 334.289 257.603 333.357C257.603 332.426 258.338 331.69 259.27 331.69H362.865V331.715Z" fill="#221B8C"/>
<path d="M262.36 343.435H293.794C294.088 343.435 294.333 343.19 294.333 342.895C294.333 342.601 294.088 342.356 293.794 342.356H262.36C262.065 342.356 261.82 342.601 261.82 342.895C261.82 343.19 262.065 343.435 262.36 343.435Z" fill="#221B8C"/>
<path d="M262.163 348.167H287.713C288.007 348.167 288.252 347.922 288.252 347.627C288.252 347.333 288.007 347.088 287.713 347.088H262.163C261.869 347.088 261.624 347.333 261.624 347.627C261.624 347.922 261.869 348.167 262.163 348.167Z" fill="#221B8C"/>
<path d="M256.303 381.905H349.87V358.979H256.303C259.074 366.727 259.148 374.377 256.303 381.905Z" fill="white"/>
<path d="M256.303 382.444H349.87C350.164 382.444 350.409 382.199 350.409 381.904V358.979C350.409 358.685 350.164 358.44 349.87 358.44H256.303C256.132 358.44 255.96 358.513 255.862 358.661C255.764 358.808 255.739 358.979 255.788 359.151C258.534 366.85 258.534 374.426 255.788 381.708C255.715 381.88 255.739 382.052 255.837 382.199C255.935 382.346 256.107 382.419 256.279 382.419L256.303 382.444ZM349.33 381.365H257.063C259.54 374.304 259.54 366.948 257.063 359.519H349.33V381.365Z" fill="#221B8C"/>
<path d="M338.59 360.107H255.641C254.636 360.107 253.827 359.298 253.827 358.293C253.827 357.288 254.636 356.479 255.641 356.479H363.282C367.671 356.479 371.226 360.034 371.226 364.423V376.903C371.226 381.292 367.671 384.847 363.282 384.847H255.641C254.636 384.847 253.827 384.038 253.827 383.032C253.827 382.027 254.636 381.218 255.641 381.218H338.59C341.68 381.218 344.205 378.717 344.205 375.603V365.698C344.205 362.608 341.704 360.083 338.59 360.083V360.107Z" fill="white"/>
<path d="M255.641 385.386H363.282C367.965 385.386 371.765 381.586 371.765 376.903V364.422C371.765 359.739 367.965 355.939 363.282 355.939H255.641C254.342 355.939 253.312 356.993 253.312 358.268C253.312 359.543 254.366 360.598 255.641 360.598H338.591C341.386 360.598 343.666 362.878 343.666 365.673V375.578C343.666 378.374 341.386 380.654 338.591 380.654H255.641C254.342 380.654 253.312 381.708 253.312 382.983C253.312 384.258 254.366 385.312 255.641 385.312V385.386ZM363.282 357.018C367.352 357.018 370.687 360.328 370.687 364.422V376.903C370.687 380.973 367.376 384.307 363.282 384.307H255.641C254.93 384.307 254.366 383.743 254.366 383.032C254.366 382.321 254.93 381.757 255.641 381.757H338.591C341.974 381.757 344.745 379.011 344.745 375.603V365.697C344.745 362.314 341.999 359.568 338.591 359.568H255.641C254.93 359.568 254.366 359.004 254.366 358.293C254.366 357.582 254.93 357.018 255.641 357.018H363.282Z" fill="#221B8C"/>
<path d="M257.946 364.962H271.75C272.045 364.962 272.29 364.717 272.29 364.423C272.29 364.128 272.045 363.883 271.75 363.883H257.946C257.652 363.883 257.406 364.128 257.406 364.423C257.406 364.717 257.652 364.962 257.946 364.962Z" fill="#221B8C"/>
<path d="M258.24 368.002H300.782C301.076 368.002 301.321 367.757 301.321 367.463C301.321 367.169 301.076 366.923 300.782 366.923H258.24C257.946 366.923 257.701 367.169 257.701 367.463C257.701 367.757 257.946 368.002 258.24 368.002Z" fill="#221B8C"/>
<path d="M258.24 374.402H294.848C295.142 374.402 295.387 374.156 295.387 373.862C295.387 373.568 295.142 373.323 294.848 373.323H258.24C257.946 373.323 257.701 373.568 257.701 373.862C257.701 374.156 257.946 374.402 258.24 374.402Z" fill="#221B8C"/>
<path d="M370.858 408.238C367.916 402.206 367.646 396.126 370.858 389.971L368.553 387.201L305.489 389.285L307.672 409.317L368.725 410.028L370.883 408.238H370.858Z" fill="white"/>
<path d="M368.701 410.567C368.823 410.567 368.946 410.518 369.044 410.445L371.202 408.655C371.398 408.508 371.447 408.238 371.349 408.017C368.333 401.814 368.333 396.003 371.349 390.241C371.447 390.045 371.422 389.824 371.275 389.653L368.97 386.882C368.872 386.76 368.701 386.686 368.553 386.686L305.489 388.77C305.342 388.77 305.195 388.844 305.097 388.966C304.999 389.089 304.95 389.236 304.974 389.383L307.157 409.415C307.181 409.685 307.402 409.881 307.672 409.881L368.725 410.592L368.701 410.567ZM370.196 408.091L368.529 409.488L308.162 408.802L306.102 389.824L368.333 387.789L370.245 390.094C367.327 395.881 367.327 401.937 370.221 408.14L370.196 408.091Z" fill="#221B8C"/>
<path d="M254.979 385.019H372.035C373.408 385.019 374.511 386.122 374.511 387.495C374.511 388.868 373.408 389.971 372.035 389.971H318.215C314.267 389.971 311.08 393.159 311.08 397.106V401.128C311.08 405.075 314.267 408.262 318.215 408.262H372.035C373.408 408.262 374.511 409.366 374.511 410.739C374.511 412.112 373.408 413.215 372.035 413.215H254.979C247.721 413.215 241.812 407.331 241.812 400.049V398.161C241.812 390.903 247.697 384.994 254.979 384.994V385.019Z" fill="white"/>
<path d="M254.979 413.73H372.035C373.702 413.73 375.051 412.381 375.051 410.714C375.051 409.047 373.702 407.698 372.035 407.698H318.215C314.586 407.698 311.619 404.732 311.619 401.103V397.082C311.619 393.453 314.586 390.486 318.215 390.486H372.035C373.702 390.486 375.051 389.138 375.051 387.47C375.051 385.803 373.702 384.455 372.035 384.455H254.979C247.427 384.455 241.297 390.584 241.297 398.136V400.024C241.297 407.576 247.427 413.705 254.979 413.705V413.73ZM372.035 408.777C373.114 408.777 373.972 409.66 373.972 410.714C373.972 411.768 373.089 412.651 372.035 412.651H254.979C248.016 412.651 242.352 406.987 242.352 400.024V398.136C242.352 391.173 248.016 385.509 254.979 385.509H372.035C373.114 385.509 373.972 386.392 373.972 387.446C373.972 388.5 373.089 389.383 372.035 389.383H318.215C313.998 389.383 310.54 392.815 310.54 397.057V401.078C310.54 405.296 313.973 408.753 318.215 408.753H372.035V408.777Z" fill="#221B8C"/>
<path d="M339.67 398.798H368.529C368.823 398.798 369.068 398.553 369.068 398.259C369.068 397.964 368.823 397.719 368.529 397.719H339.67C339.375 397.719 339.13 397.964 339.13 398.259C339.13 398.553 339.375 398.798 339.67 398.798Z" fill="#221B8C"/>
<path d="M333.491 404.143H368.774C369.068 404.143 369.313 403.898 369.313 403.604C369.313 403.31 369.068 403.064 368.774 403.064H333.491C333.196 403.064 332.951 403.31 332.951 403.604C332.951 403.898 333.196 404.143 333.491 404.143Z" fill="#221B8C"/>
<path d="M103.051 122.651C98.6848 125.458 69.9726 142.338 35.5882 126.004C35.4713 125.946 35.3543 125.848 35.2958 125.731C33.9704 122.983 19.3316 90.7824 40.3833 44.7819C40.5393 44.431 41.0071 44.3141 41.2995 44.548C45.1589 47.5692 66.9318 63.9812 84.202 63.5524C84.6114 63.5524 84.9037 63.9228 84.8063 64.3126C83.5588 68.8737 78.7442 92.5367 103.149 121.774C103.382 122.047 103.324 122.476 103.012 122.671L103.051 122.651Z" fill="white"/>
<path d="M65.9766 133.469C70.8497 133.469 75.7423 132.943 80.6738 131.91C92.7201 129.376 101.024 124.445 103.285 123.002C103.538 122.846 103.694 122.593 103.753 122.301C103.792 122.008 103.714 121.716 103.519 121.482C79.2314 92.4002 84.046 68.8346 85.2545 64.41C85.3325 64.0981 85.274 63.7668 85.0791 63.5134C84.8842 63.26 84.5723 63.1041 84.2409 63.1236C67.1657 63.5524 45.7241 47.4327 41.6112 44.2166C41.3578 44.0216 41.046 43.9632 40.7341 44.0216C40.4222 44.0996 40.1688 44.314 40.0324 44.6064C31.1828 63.9227 27.4988 83.0636 29.0582 101.522C30.2472 115.634 34.1652 124.328 34.9449 125.926C35.0423 126.14 35.2178 126.296 35.4322 126.413C45.3732 131.13 55.6067 133.489 65.9961 133.489L65.9766 133.469ZM84.2604 63.9617C84.2604 63.9617 84.3968 64.0007 84.4163 64.0397C84.4358 64.0787 84.4553 64.1176 84.4358 64.1956C83.2078 68.6982 78.3153 92.6341 102.876 122.028C102.915 122.086 102.915 122.145 102.915 122.184C102.915 122.223 102.895 122.262 102.837 122.301C100.614 123.723 92.4082 128.577 80.4984 131.091C65.2359 134.307 50.1879 132.475 35.783 125.634C35.7441 125.634 35.7245 125.595 35.7051 125.556C34.9449 123.977 31.0854 115.4 29.8964 101.444C28.3565 83.1416 32.021 64.1371 40.7925 44.9572C40.8315 44.8793 40.89 44.8598 40.929 44.8403C40.968 44.8403 41.0265 44.8403 41.085 44.8793C45.1978 48.0954 66.3665 63.9812 83.5977 63.9812C83.8316 63.9812 84.046 63.9812 84.2799 63.9812L84.2604 63.9617Z" fill="#EB4623"/>
<path d="M77.8475 71.4856C78.0424 71.4856 78.2178 71.3492 78.2568 71.1543C78.2958 70.9204 78.1594 70.7059 77.9255 70.6475C77.75 70.6085 59.2908 66.6517 45.8606 56.6914C45.6657 56.5549 45.4123 56.5939 45.2564 56.7888C45.1199 56.9837 45.1589 57.2371 45.3538 57.3931C58.94 67.4703 77.5551 71.4661 77.75 71.5051C77.789 71.5051 77.8085 71.5051 77.8475 71.5051V71.4856Z" fill="#221B8C"/>
<path d="M64.5732 76.2806C64.7681 76.2806 64.9435 76.1442 64.9825 75.9493C65.041 75.7154 64.885 75.5009 64.6706 75.4425C55.8796 73.4543 48.1606 70.1992 41.7282 65.7746C41.5333 65.6381 41.2604 65.6966 41.1434 65.8915C41.007 66.0864 41.0654 66.3593 41.2603 66.4763C47.7903 70.9594 55.6067 74.2535 64.4952 76.2806C64.5342 76.2806 64.5537 76.2806 64.5926 76.2806H64.5732Z" fill="#221B8C"/>
<path d="M78.0033 78.1127C78.2372 78.1127 78.4321 77.9178 78.4321 77.6839C78.4321 77.45 78.2567 77.2551 78.0033 77.2551C77.9838 77.2551 75.1574 77.2161 70.8496 76.5729C70.6157 76.5339 70.4013 76.6898 70.3623 76.9237C70.3233 77.1576 70.4793 77.372 70.7132 77.411C75.0794 78.0542 77.9448 78.0932 77.9838 78.0932L78.0033 78.1127Z" fill="#221B8C"/>
<path d="M73.9293 85.5001C76.7557 85.5001 78.4125 85.3052 78.471 85.3052C78.7049 85.2857 78.8609 85.0713 78.8414 84.8374C78.8219 84.6035 78.6075 84.4476 78.3736 84.467C78.1981 84.4865 60.2067 86.5137 40.0517 76.8068C39.8373 76.7093 39.5839 76.8068 39.4864 77.0017C39.3889 77.2161 39.4864 77.4695 39.6813 77.567C54.0082 84.467 67.2434 85.5001 73.9293 85.5001Z" fill="#221B8C"/>
<path d="M68.4326 93.2188C75.7227 93.2188 80.2839 92.2247 80.3619 92.2052C80.5958 92.1468 80.7322 91.9323 80.6738 91.6984C80.6153 91.4645 80.4009 91.3281 80.167 91.3866C79.972 91.4256 61.1619 95.4993 38.6288 86.8255C38.4144 86.7475 38.161 86.845 38.083 87.0789C38.0051 87.2933 38.1025 87.5467 38.3365 87.6247C50.0318 92.1273 60.7526 93.2188 68.4326 93.2188Z" fill="#221B8C"/>
<path d="M51.7278 102.088C51.9423 102.088 52.1177 101.932 52.1567 101.717C52.1957 101.483 52.0202 101.269 51.7863 101.23C47.2446 100.587 42.9368 99.4757 38.9409 97.9163C38.7265 97.8384 38.4731 97.9358 38.3951 98.1502C38.3171 98.3646 38.4146 98.618 38.629 98.696C42.6834 100.294 47.0497 101.425 51.6499 102.068C51.6694 102.068 51.6889 102.068 51.7084 102.068L51.7278 102.088Z" fill="#221B8C"/>
<path d="M61.2596 102.75C73.3253 102.75 82.5452 99.7875 82.6427 99.7485C82.8571 99.6706 82.9935 99.4367 82.9156 99.2028C82.8376 98.9884 82.6037 98.8519 82.3698 98.9299C82.2723 98.9689 72.1363 102.224 59.2324 101.854C58.979 101.854 58.8036 102.029 58.8036 102.263C58.8036 102.497 58.979 102.692 59.2129 102.692C59.8952 102.692 60.5774 102.711 61.2401 102.711L61.2596 102.75Z" fill="#221B8C"/>
<path d="M62.6317 207.232L48.5995 220.794C47.3047 222.041 45.233 221.992 44.003 220.681C39.7625 216.117 29.6956 206.261 17.0876 200.726C15.2749 199.933 14.5952 197.699 15.6795 196.032L28.1742 176.838C29.1129 175.397 31.0227 174.944 32.4956 175.818C37.2215 178.602 47.8873 185.998 62.8097 202.797C63.9588 204.092 63.8779 206.051 62.6317 207.248V207.232Z" fill="white"/>
<path d="M46.3497 222.057C47.2884 222.057 48.1624 221.701 48.8259 221.053L62.8582 207.491C64.2339 206.164 64.3148 203.995 63.0524 202.555C48.2595 185.885 37.6584 178.456 32.6411 175.494C30.9903 174.523 28.8863 175.025 27.8504 176.627L15.3558 195.822C14.7893 196.696 14.6274 197.78 14.935 198.784C15.2425 199.787 15.9708 200.613 16.9257 201.033C29.6631 206.633 39.9081 216.797 43.7277 220.908C44.3751 221.62 45.2815 222.024 46.2364 222.041C46.2687 222.041 46.3011 222.041 46.3335 222.041L46.3497 222.057ZM62.3888 206.973L48.3566 220.535C47.7901 221.07 47.0618 221.361 46.2849 221.345C45.5081 221.329 44.7959 221.005 44.278 220.438C40.4422 216.295 30.1163 206.05 17.2494 200.402C16.4725 200.062 15.8899 199.399 15.6471 198.59C15.4043 197.78 15.5338 196.923 15.987 196.21L28.4816 177.016C29.3232 175.721 31.0065 175.333 32.3336 176.109C37.3024 179.039 47.8387 186.435 62.5668 203.024C63.5865 204.173 63.5218 205.921 62.405 206.989L62.3888 206.973Z" fill="#221B8C"/>
<path d="M72.035 224.921L58.0028 238.484C56.708 239.73 54.6363 239.682 53.4063 238.371C49.1659 233.807 39.0989 223.95 26.491 218.415C24.6783 217.622 23.9985 215.389 25.0829 213.722L37.5775 194.527C38.5163 193.087 40.4261 192.634 41.8989 193.508C46.6248 196.291 57.2906 203.688 72.213 220.487C73.3622 221.782 73.2812 223.74 72.035 224.938V224.921Z" fill="white"/>
<path d="M55.7693 239.746C56.708 239.746 57.582 239.39 58.2456 238.743L72.2778 225.18C73.6535 223.853 73.7506 221.685 72.472 220.244C57.6791 203.574 47.0781 196.146 42.0608 193.184C40.4099 192.213 38.3059 192.715 37.2701 194.317L24.7754 213.511C24.209 214.385 24.0471 215.47 24.3546 216.473C24.6621 217.477 25.3904 218.302 26.3453 218.723C39.0828 224.323 49.3278 234.486 53.1474 238.597C53.7948 239.309 54.7011 239.714 55.656 239.73C55.6884 239.73 55.7208 239.73 55.7531 239.73L55.7693 239.746ZM71.7923 224.679L57.76 238.241C57.1936 238.775 56.4653 239.067 55.6884 239.05C54.9115 239.034 54.1994 238.71 53.6815 238.144C49.8457 234.001 39.5198 223.756 26.6528 218.108C25.876 217.768 25.2933 217.104 25.0506 216.295C24.8078 215.486 24.9372 214.628 25.3904 213.916L37.8851 194.721C38.7267 193.427 40.4099 193.038 41.7371 193.815C46.7058 196.744 57.2421 204.141 71.9703 220.73C72.99 221.879 72.9252 223.627 71.8085 224.695L71.7923 224.679Z" fill="#221B8C"/>
<path d="M69.0733 223.74C69.2513 223.74 69.397 223.611 69.4294 223.432C69.4617 223.238 69.3322 223.06 69.138 223.028L51.8688 220.422C48.8261 219.969 46.3337 217.881 45.3626 214.968L39.6331 197.748C39.5684 197.57 39.3742 197.457 39.18 197.521C39.0019 197.586 38.8886 197.78 38.9534 197.974L44.6828 215.195C45.7348 218.351 48.4377 220.616 51.7556 221.118L69.0247 223.724C69.0247 223.724 69.0571 223.724 69.0733 223.724V223.74Z" fill="#221B8C"/>
<path d="M64.4998 358.89C64.4998 358.89 64.5852 358.89 64.6365 358.856C66.0543 358.292 67.6088 357.353 67.6772 357.319C67.848 357.216 67.9163 356.977 67.7968 356.806C67.6943 356.635 67.4551 356.567 67.2843 356.687C67.2843 356.687 65.7127 357.626 64.3461 358.173C64.1582 358.241 64.0557 358.463 64.1411 358.651C64.1923 358.805 64.3461 358.89 64.4827 358.89H64.4998Z" fill="#EB4623"/>
<path d="M50.27 380.584L44.5986 383.83C44.1374 384.103 43.5224 383.933 43.2662 383.454L25.7566 352.604C25.4491 352.074 25.637 351.408 26.1665 351.101L40.533 342.884L50.27 380.567V380.584Z" fill="white"/>
<path d="M44.1201 384.326C44.3422 384.326 44.5814 384.257 44.7864 384.155L50.4578 380.909C50.6286 380.807 50.6969 380.585 50.5944 380.397C50.4919 380.226 50.2698 380.158 50.0819 380.26L44.4105 383.506C44.2397 383.608 44.0518 383.608 43.881 383.54C43.881 383.54 43.5222 383.335 43.0952 382.6C42.6681 381.849 26.3714 352.946 26.2005 352.638C25.9443 352.194 26.0297 351.75 26.4055 351.545L40.7719 343.329C40.9428 343.226 41.0111 343.004 40.9086 342.816C40.8061 342.645 40.584 342.577 40.3961 342.68L26.0297 350.896C25.3122 351.306 25.0902 352.211 25.5514 353.014C25.7222 353.305 42.019 382.225 42.446 382.976C42.9927 383.933 43.5222 384.189 43.5735 384.223C43.7443 384.291 43.9322 384.343 44.1201 384.343V384.326Z" fill="#EB4623"/>
<path d="M51.8586 382.583C52.0465 382.583 52.2344 382.532 52.4223 382.429L85.5454 363.485C85.8358 363.315 86.0408 363.024 86.092 362.7C86.1433 362.358 86.0579 362.033 85.8358 361.76L60.3657 332.242C60.007 331.832 59.4262 331.73 58.9478 332.003L25.8248 350.947C25.5344 351.118 25.3294 351.408 25.2781 351.733C25.2269 352.075 25.3123 352.399 25.5344 352.672L32.5211 360.769C32.6578 360.923 32.8969 360.94 33.0507 360.804C33.2044 360.667 33.2215 360.428 33.0849 360.274L26.0981 352.177C26.0298 352.092 25.9956 351.972 26.0127 351.852C26.0127 351.784 26.0639 351.665 26.2006 351.579L59.3237 332.635C59.4774 332.55 59.6824 332.584 59.802 332.721L85.2721 362.238C85.3404 362.324 85.3746 362.443 85.3575 362.563C85.3575 362.631 85.3062 362.751 85.1696 362.836L52.0465 381.78C51.8928 381.866 51.6878 381.832 51.5682 381.695L34.776 362.221C34.6394 362.068 34.4002 362.05 34.2465 362.187C34.0927 362.324 34.0756 362.563 34.2123 362.717L51.0045 382.19C51.2265 382.446 51.534 382.583 51.8586 382.583Z" fill="#EB4623"/>
<path d="M57.4788 379.748C57.4788 379.748 57.5471 379.748 57.5813 379.765H57.4788V379.748Z" fill="#221B8C"/>
<path d="M63.6966 352.297C63.6966 352.297 63.8162 352.297 63.8845 352.245L70.2051 348.641C70.3076 348.59 70.3759 348.487 70.393 348.385C70.4101 348.282 70.393 348.163 70.3076 348.077L65.7465 342.799C65.6269 342.662 65.439 342.628 65.2853 342.714L58.9647 346.318C58.8622 346.369 58.7939 346.472 58.7769 346.574C58.7598 346.677 58.7768 346.796 58.8622 346.882L63.4233 352.16C63.4233 352.16 63.5941 352.297 63.7137 352.297H63.6966ZM69.4364 348.214L63.782 351.442L59.7164 346.745L65.3707 343.516L69.4364 348.214Z" fill="#EB4623"/>
<path d="M69.2657 358.719C69.2657 358.719 69.3853 358.719 69.4536 358.668L75.7742 355.064C75.8766 355.013 75.945 354.91 75.9621 354.808C75.9791 354.705 75.9621 354.586 75.8767 354.5L71.3156 349.222C71.196 349.085 71.0081 349.051 70.8544 349.136L64.5338 352.741C64.4313 352.792 64.363 352.894 64.3459 352.997C64.3288 353.099 64.3459 353.219 64.4313 353.304L68.9924 358.583C68.9924 358.583 69.1632 358.719 69.2828 358.719H69.2657ZM74.9884 354.637L69.334 357.865L65.2684 353.168L70.9227 349.939L74.9884 354.637Z" fill="#EB4623"/>
<path d="M56.1119 356.635C56.1119 356.635 56.2315 356.635 56.2998 356.584L62.6204 352.98C62.7229 352.929 62.7912 352.826 62.8083 352.724C62.8253 352.621 62.8083 352.502 62.7229 352.416L58.1618 347.138C58.0422 347.001 57.8543 346.967 57.7006 347.052L51.38 350.657C51.2775 350.708 51.2092 350.81 51.1921 350.913C51.1751 351.015 51.1921 351.135 51.2775 351.22L55.8386 356.499C55.8386 356.499 56.0094 356.635 56.129 356.635H56.1119ZM61.8346 352.57L56.1802 355.798L52.1146 351.101L57.7689 347.872L61.8346 352.57Z" fill="#EB4623"/>
<path d="M63.4236 353.8L57.103 357.404L61.6641 362.7L67.9846 359.078L63.4236 353.8Z" fill="#221B8C"/>
<path d="M61.6639 363.058C61.6639 363.058 61.7835 363.058 61.8518 363.007L68.1724 359.403C68.2749 359.352 68.3432 359.249 68.3603 359.147C68.3773 359.044 68.3603 358.924 68.2749 358.839L63.7138 353.561C63.5942 353.424 63.4063 353.39 63.2526 353.475L56.932 357.08C56.8296 357.131 56.7612 357.233 56.7441 357.336C56.7271 357.438 56.7441 357.558 56.8295 357.643L61.3906 362.922C61.3906 362.922 61.5614 363.058 61.681 363.058H61.6639ZM67.4036 358.976L61.7493 362.204L57.6837 357.507L63.338 354.278L67.4036 358.976Z" fill="#EB4623"/>
<path d="M48.5103 360.991C48.5103 360.991 48.6299 360.991 48.6982 360.94L55.0188 357.336C55.1213 357.285 55.1896 357.182 55.2067 357.08C55.2238 356.977 55.2067 356.858 55.1213 356.772L50.5602 351.494C50.4407 351.357 50.2528 351.323 50.099 351.408L43.7785 355.013C43.676 355.064 43.6076 355.166 43.5905 355.269C43.5735 355.371 43.5906 355.491 43.676 355.576L48.237 360.855C48.237 360.855 48.4079 360.991 48.5274 360.991H48.5103ZM54.2501 356.909L48.5958 360.137L44.5301 355.44L50.1844 352.211L54.2501 356.909Z" fill="#EB4623"/>
<path d="M54.0792 367.414C54.0792 367.414 54.1987 367.414 54.2671 367.363L60.5876 363.759C60.6901 363.707 60.7585 363.605 60.7755 363.502C60.7926 363.4 60.7755 363.28 60.6901 363.195L56.1291 357.917C56.0095 357.78 55.8216 357.746 55.6678 357.831L49.3473 361.436C49.2448 361.487 49.1765 361.589 49.1594 361.692C49.1423 361.794 49.1594 361.914 49.2448 361.999L53.8059 367.278C53.8059 367.278 53.9767 367.414 54.0963 367.414H54.0792ZM59.8189 363.332L54.1646 366.56L50.0989 361.863L55.7533 358.634L59.8189 363.332Z" fill="#EB4623"/>
<path d="M40.9256 365.33C40.9256 365.33 41.0452 365.33 41.1135 365.279L47.4341 361.675C47.5366 361.623 47.6049 361.521 47.622 361.419C47.6391 361.316 47.622 361.196 47.5366 361.111L42.9755 355.833C42.856 355.696 42.668 355.662 42.5143 355.747L36.1938 359.352C36.0913 359.403 36.0229 359.505 36.0059 359.608C35.9888 359.71 36.0058 359.83 36.0912 359.915L40.6523 365.194C40.6523 365.194 40.8231 365.33 40.9427 365.33H40.9256ZM46.6483 361.248L40.994 364.476L36.9283 359.779L42.5826 356.55L46.6483 361.248Z" fill="#EB4623"/>
<path d="M46.4774 371.753C46.4774 371.753 46.597 371.753 46.6653 371.702L52.9858 368.098C53.0883 368.046 53.1566 367.944 53.1737 367.841C53.1908 367.739 53.1738 367.619 53.0883 367.534L48.5273 362.256C48.4077 362.119 48.2198 362.085 48.0661 362.17L41.7455 365.774C41.643 365.826 41.5747 365.928 41.5576 366.031C41.5405 366.133 41.5576 366.253 41.643 366.338L46.2041 371.616C46.2041 371.616 46.3749 371.753 46.4945 371.753H46.4774ZM52.2171 367.671L46.5628 370.899L42.4971 366.201L48.1515 362.973L52.2171 367.671Z" fill="#EB4623"/>
<path d="M56.4024 337.828C56.4024 337.828 56.522 337.828 56.5903 337.777C58.3157 336.786 58.9136 334.565 57.9399 332.84C57.4616 332.003 56.6758 331.388 55.7533 331.132C54.8309 330.875 53.8571 330.995 53.0201 331.473C52.9518 331.508 52.9005 331.542 52.8322 331.593C52.6614 331.713 52.6101 331.935 52.7297 332.105C52.8493 332.276 53.0714 332.327 53.2422 332.208C53.2934 332.174 53.3447 332.14 53.3959 332.122C54.0621 331.747 54.8309 331.644 55.5654 331.849C56.3 332.054 56.932 332.532 57.3078 333.199C58.0936 334.582 57.6153 336.342 56.2487 337.128C56.0779 337.23 56.0095 337.452 56.112 337.64C56.1804 337.76 56.3 337.828 56.4366 337.828H56.4024Z" fill="#EB4623"/>
<path d="M52.1488 340.271C52.1488 340.271 52.2684 340.271 52.3367 340.22C54.062 339.229 54.6599 337.008 53.6862 335.283C53.2079 334.446 52.4221 333.831 51.4997 333.575C50.5772 333.318 49.6035 333.438 48.7665 333.916C48.6981 333.95 48.6469 333.985 48.5785 334.036C48.4077 334.155 48.3565 334.377 48.476 334.548C48.5956 334.719 48.8177 334.77 48.9885 334.651C49.0398 334.617 49.091 334.582 49.1423 334.565C49.8085 334.19 50.5772 334.087 51.3117 334.292C52.0463 334.497 52.6784 334.975 53.0542 335.642C53.84 337.025 53.3617 338.785 51.9951 339.57C51.8242 339.673 51.7559 339.895 51.8584 340.083C51.9267 340.202 52.0463 340.271 52.183 340.271H52.1488Z" fill="#EB4623"/>
<path d="M47.8954 342.696C47.8954 342.696 48.0149 342.696 48.0833 342.645C49.8086 341.654 50.4065 339.433 49.4328 337.708C48.9545 336.871 48.1687 336.256 47.2462 336C46.3238 335.744 45.3501 335.863 44.513 336.342C44.4447 336.376 44.3934 336.41 44.3251 336.461C44.1543 336.581 44.103 336.803 44.2226 336.974C44.3422 337.144 44.5643 337.196 44.7351 337.076C44.7864 337.042 44.8376 337.008 44.8888 336.991C45.5551 336.615 46.3238 336.512 47.0583 336.717C47.7929 336.922 48.4249 337.401 48.8007 338.067C49.5865 339.45 49.1082 341.21 47.7416 341.996C47.5708 342.098 47.5025 342.32 47.605 342.508C47.6733 342.628 47.7929 342.696 47.9295 342.696H47.8954Z" fill="#EB4623"/>
<path d="M43.6588 345.122C43.6588 345.122 43.7784 345.122 43.8467 345.071C45.5721 344.08 46.1699 341.86 45.1962 340.134C44.7179 339.297 43.9321 338.682 43.0097 338.426C42.0872 338.17 41.1135 338.289 40.2765 338.768C40.2081 338.802 40.1569 338.836 40.0886 338.887C39.9177 339.007 39.8665 339.229 39.9861 339.4C40.1056 339.571 40.3277 339.622 40.4985 339.502C40.5498 339.468 40.601 339.434 40.6523 339.417C41.3185 339.041 42.0872 338.939 42.8218 339.144C43.5563 339.349 44.1884 339.827 44.5642 340.493C45.35 341.877 44.8717 343.636 43.5051 344.422C43.3342 344.524 43.2659 344.747 43.3684 344.934C43.4367 345.054 43.5563 345.122 43.693 345.122H43.6588Z" fill="#EB4623"/>
<path d="M39.4051 347.565C39.4051 347.565 39.5247 347.565 39.593 347.513C41.3184 346.523 41.9163 344.302 40.9426 342.577C40.4643 341.74 39.6785 341.125 38.756 340.869C37.8335 340.612 36.8598 340.732 36.0228 341.21C35.9545 341.244 35.9032 341.279 35.8349 341.33C35.6641 341.449 35.6128 341.671 35.7324 341.842C35.852 342.013 36.074 342.064 36.2449 341.945C36.2961 341.911 36.3474 341.876 36.3986 341.859C37.0648 341.483 37.8335 341.381 38.5681 341.586C39.3026 341.791 39.9347 342.269 40.3105 342.935C41.0963 344.319 40.618 346.079 39.2514 346.864C39.0806 346.967 39.0122 347.189 39.1147 347.377C39.1831 347.496 39.3026 347.565 39.4393 347.565H39.4051Z" fill="#EB4623"/>
<path d="M35.1517 349.99C35.1517 349.99 35.2713 349.99 35.3396 349.939C37.065 348.948 37.6629 346.728 36.6891 345.003C36.2108 344.165 35.425 343.551 34.5026 343.294C33.5801 343.038 32.6064 343.158 31.7694 343.636C31.701 343.67 31.6498 343.704 31.5815 343.756C31.4106 343.875 31.3594 344.097 31.479 344.268C31.5985 344.439 31.8206 344.49 31.9914 344.37C32.0427 344.336 32.0939 344.302 32.1452 344.285C32.8114 343.909 33.5801 343.807 34.3147 344.012C35.0492 344.217 35.6813 344.695 36.0571 345.361C36.8429 346.745 36.3646 348.504 34.998 349.29C34.8271 349.393 34.7588 349.615 34.8613 349.803C34.9297 349.922 35.0492 349.99 35.1859 349.99H35.1517Z" fill="#EB4623"/>
<path d="M31.1373 352.279C31.1373 352.279 31.2569 352.279 31.3252 352.228C33.0506 351.237 33.6484 349.016 32.6747 347.291C32.1964 346.454 31.4106 345.839 30.4882 345.583C29.5657 345.327 28.592 345.446 27.755 345.925C26.6617 346.557 25.9784 347.684 25.9442 348.948C25.9442 349.153 26.098 349.324 26.303 349.341C26.525 349.341 26.6788 349.187 26.6958 348.982C26.73 347.974 27.2767 347.086 28.1308 346.591C28.797 346.215 29.5657 346.112 30.3003 346.317C31.0348 346.522 31.6669 347.001 32.0427 347.667C32.8285 349.051 32.3502 350.81 30.9836 351.596C30.8128 351.698 30.7444 351.92 30.8469 352.108C30.9153 352.228 31.0348 352.296 31.1715 352.296L31.1373 352.279Z" fill="#EB4623"/>
<path d="M256.475 400.073C256.475 400.073 274.962 359.519 264.37 306.975C264.37 306.975 235.707 331.004 246.029 400.073H256.475Z" fill="white"/>
<path d="M246.03 400.612H256.475C256.696 400.612 256.867 400.49 256.965 400.294C257.161 399.877 275.404 358.98 264.885 306.853C264.836 306.657 264.713 306.509 264.542 306.46C264.37 306.387 264.174 306.436 264.027 306.558C263.733 306.804 256.695 312.811 250.835 327.424C245.441 340.836 240.145 364.349 245.515 400.171C245.564 400.441 245.784 400.637 246.054 400.637L246.03 400.612ZM256.132 399.558H246.495C241.297 364.3 246.495 341.154 251.792 327.914C256.499 316.145 262.114 309.917 264.027 308.03C273.614 356.969 257.774 395.709 256.132 399.558Z" fill="#221B8C"/>
<path d="M251.963 396.395C251.963 396.395 251.963 396.395 251.988 396.395C252.282 396.395 252.503 396.125 252.503 395.831C251.081 369.915 262.776 314.576 262.899 314.012C262.973 313.718 262.776 313.448 262.482 313.375C262.188 313.325 261.918 313.497 261.845 313.791C261.722 314.355 250.002 369.817 251.424 395.88C251.424 396.174 251.669 396.395 251.963 396.395Z" fill="#221B8C"/>
<path d="M235.045 334.363C235.045 334.363 258.878 377.418 244.534 396.052H236.859C236.859 396.052 221.534 362.388 235.02 334.363H235.045Z" fill="white"/>
<path d="M236.884 396.592H244.558C244.73 396.592 244.877 396.518 244.975 396.371C251.031 388.5 251.277 375.603 245.686 358.048C241.542 345.053 235.584 334.191 235.511 334.093C235.413 333.922 235.241 333.799 235.02 333.823C234.824 333.823 234.652 333.946 234.554 334.118C221.093 362.045 236.222 395.93 236.369 396.273C236.467 396.469 236.639 396.592 236.859 396.592H236.884ZM244.289 395.513H237.227C235.756 392.08 223.3 361.407 235.069 335.54C238.404 341.89 256.744 378.766 244.264 395.513H244.289Z" fill="#221B8C"/>
<path d="M240.978 397.719C241.273 397.719 241.493 397.498 241.518 397.204C242.204 379.428 236.222 340.762 236.173 340.37C236.124 340.076 235.854 339.879 235.56 339.928C235.265 339.977 235.069 340.247 235.118 340.541C235.167 340.934 241.15 379.502 240.464 397.18C240.464 397.474 240.684 397.719 240.978 397.744V397.719Z" fill="#221B8C"/>
<path d="M283.373 350.226C283.373 350.226 263.07 357.165 255.715 398.16H263.708C263.708 398.16 280.381 375.628 283.373 350.226Z" fill="white"/>
<path d="M255.715 398.675H263.708C263.88 398.675 264.027 398.602 264.149 398.455C264.321 398.234 280.945 375.53 283.912 350.275C283.912 350.104 283.863 349.907 283.716 349.785C283.569 349.662 283.373 349.638 283.201 349.687C282.98 349.76 277.929 351.55 271.898 358.44C266.381 364.741 259 376.731 255.2 398.038C255.175 398.185 255.2 398.357 255.322 398.479C255.42 398.602 255.568 398.675 255.739 398.675H255.715ZM263.438 397.621H256.377C262.825 362.657 278.935 352.923 282.735 351.084C279.67 374.377 265.13 395.267 263.438 397.621Z" fill="#221B8C"/>
<path d="M260.079 397.523C260.324 397.523 260.57 397.327 260.619 397.081C263.635 378.815 276.728 360.426 276.851 360.254C277.022 360.009 276.973 359.69 276.728 359.519C276.483 359.347 276.164 359.396 275.992 359.641C275.87 359.837 262.629 378.423 259.564 396.934C259.515 397.228 259.711 397.498 260.006 397.547C260.03 397.547 260.055 397.547 260.104 397.547L260.079 397.523Z" fill="#221B8C"/>
<path d="M275.551 394.899H225.458L224.33 418.585C224.06 424.396 228.694 429.25 234.505 429.25H263.12C270.01 429.25 275.575 423.66 275.575 416.795V394.899H275.551Z" fill="#221B8C"/>
<path d="M162.541 21.0862H175.659V168.738H162.541V21.0862Z" fill="white"/>
<path d="M175.659 169.278C175.953 169.278 176.198 169.032 176.198 168.738V21.086C176.198 20.7918 175.953 20.5466 175.659 20.5466C175.365 20.5466 175.119 20.7918 175.119 21.086V168.738C175.119 169.032 175.365 169.278 175.659 169.278Z" fill="#221B8C"/>
<path d="M162.541 169.278C162.835 169.278 163.08 169.032 163.08 168.738V21.086C163.08 20.7918 162.835 20.5466 162.541 20.5466C162.247 20.5466 162.001 20.7918 162.001 21.086V168.738C162.001 169.032 162.247 169.278 162.541 169.278Z" fill="#221B8C"/>
<path d="M202.924 431.604C206.504 431.604 210.133 431.506 213.713 431.31C214.007 431.31 214.228 431.04 214.228 430.746C214.228 430.452 213.958 430.231 213.664 430.231C210.109 430.427 206.504 430.525 202.949 430.525C184.51 430.525 166.243 427.926 148.712 422.826C148.418 422.753 148.123 422.9 148.05 423.194C147.976 423.488 148.123 423.783 148.418 423.856C166.047 428.981 184.412 431.604 202.949 431.604H202.924Z" fill="#221B8C"/>
<path d="M91.6304 396.591C91.802 396.591 91.9736 396.518 92.0717 396.37C92.2434 396.125 92.1943 395.806 91.9491 395.635C86.702 391.957 81.5529 387.96 76.698 383.768C76.4774 383.572 76.1341 383.596 75.9379 383.817C75.7418 384.037 75.7663 384.381 75.9869 384.577C80.8908 388.794 86.0399 392.791 91.3362 396.493C91.4342 396.567 91.5323 396.591 91.6304 396.591Z" fill="#221B8C"/>
<path d="M264.861 53.2059C265.081 53.2059 265.302 53.0587 265.376 52.8381C265.474 52.5684 265.326 52.2496 265.032 52.1515C245.073 45.4334 224.183 42.0498 202.924 42.0498C199.418 42.0498 195.887 42.1479 192.406 42.3195C192.111 42.3195 191.891 42.5892 191.891 42.8834C191.891 43.1777 192.16 43.3983 192.455 43.3983C195.912 43.2022 199.443 43.1286 202.9 43.1286C224.036 43.1286 244.828 46.5122 264.664 53.1813C264.713 53.1813 264.787 53.2059 264.836 53.2059H264.861Z" fill="#221B8C"/>
<path d="M280.945 59.4336C281.142 59.4336 281.338 59.311 281.436 59.1149C281.558 58.8452 281.436 58.5264 281.166 58.4038C278.91 57.4231 276.605 56.4669 274.325 55.5597C274.055 55.4616 273.737 55.5842 273.639 55.8539C273.54 56.1236 273.663 56.4423 273.933 56.5404C276.213 57.4476 278.493 58.3793 280.725 59.3846C280.798 59.4091 280.872 59.4336 280.945 59.4336Z" fill="#221B8C"/>
<path d="M102.346 398.062C102.468 398.062 102.615 398.013 102.713 397.915C102.934 397.719 102.934 397.376 102.713 397.155L100.752 395.096C100.556 394.875 100.212 394.875 99.9917 395.096C99.7711 395.292 99.7711 395.635 99.9917 395.856L101.953 397.915C101.953 397.915 102.198 398.087 102.346 398.087V398.062Z" fill="#221B8C"/>
<path d="M109.235 405.247C109.358 405.247 109.505 405.197 109.603 405.099C109.824 404.903 109.824 404.56 109.603 404.339L107.642 402.28C107.446 402.059 107.102 402.059 106.882 402.28C106.661 402.476 106.661 402.819 106.882 403.04L108.843 405.099C108.843 405.099 109.088 405.271 109.235 405.271V405.247Z" fill="#221B8C"/>
<path d="M107.298 398.161C107.446 398.161 107.568 398.112 107.666 398.014L109.652 396.052C109.873 395.856 109.873 395.513 109.652 395.292C109.456 395.071 109.113 395.071 108.892 395.292L106.906 397.253C106.686 397.45 106.686 397.793 106.906 398.014C107.004 398.112 107.151 398.185 107.298 398.185V398.161Z" fill="#221B8C"/>
<path d="M100.31 405.05C100.458 405.05 100.58 405.001 100.678 404.903L102.664 402.942C102.885 402.746 102.885 402.402 102.664 402.182C102.468 401.961 102.125 401.961 101.904 402.182L99.9182 404.143C99.6975 404.339 99.6975 404.683 99.9182 404.903C100.016 405.001 100.163 405.075 100.31 405.075V405.05Z" fill="#221B8C"/>
<path d="M56.6903 29.5207C56.8129 29.5207 56.96 29.4717 57.0581 29.3736C57.2788 29.1774 57.2788 28.8342 57.0581 28.6135L55.0966 26.5539C54.9004 26.3333 54.5571 26.3333 54.3365 26.5539C54.1158 26.7501 54.1158 27.0933 54.3365 27.314L56.298 29.3736C56.298 29.3736 56.5432 29.5452 56.6903 29.5452V29.5207Z" fill="#221B8C"/>
<path d="M63.5802 36.7292C63.7028 36.7292 63.8499 36.6802 63.948 36.5821C64.1687 36.3859 64.1687 36.0427 63.948 35.822L61.9865 33.7624C61.7903 33.5418 61.447 33.5418 61.2264 33.7624C61.0057 33.9586 61.0057 34.3018 61.2264 34.5225L63.1879 36.5821C63.1879 36.5821 63.4331 36.7537 63.5802 36.7537V36.7292Z" fill="#221B8C"/>
<path d="M61.6432 29.6433C61.7904 29.6433 61.9129 29.5943 62.011 29.4962L63.9971 27.5347C64.2178 27.3386 64.2178 26.9953 63.9971 26.7746C63.8009 26.554 63.4577 26.554 63.237 26.7746L61.2509 28.7361C61.0302 28.9323 61.0302 29.2755 61.2509 29.4962C61.349 29.5943 61.4961 29.6678 61.6432 29.6678V29.6433Z" fill="#221B8C"/>
<path d="M54.6552 36.5086C54.8023 36.5086 54.9249 36.4595 55.023 36.3615L57.0091 34.3999C57.2297 34.2038 57.2297 33.8605 57.0091 33.6399C56.8129 33.4192 56.4696 33.4192 56.249 33.6399L54.2628 35.6014C54.0422 35.7975 54.0422 36.1408 54.2628 36.3615C54.3609 36.4595 54.5081 36.5331 54.6552 36.5331V36.5086Z" fill="#221B8C"/>
<path d="M235.167 177.295C235.315 177.295 235.462 177.246 235.56 177.124C237.006 175.505 238.036 173.519 238.6 171.264C238.674 170.969 238.502 170.675 238.208 170.602C237.914 170.528 237.619 170.7 237.546 170.994C237.006 173.102 236.075 174.917 234.726 176.412C234.53 176.633 234.554 176.976 234.775 177.173C234.873 177.271 234.996 177.295 235.118 177.295H235.167ZM238.6 165.281C238.6 165.281 238.6 165.281 238.625 165.281C238.919 165.281 239.14 165.011 239.115 164.717C238.992 162.707 238.625 160.549 238.036 158.293C237.963 157.999 237.668 157.827 237.374 157.901C237.08 157.974 236.908 158.269 236.982 158.563C237.546 160.745 237.889 162.854 238.012 164.791C238.012 165.085 238.257 165.281 238.551 165.281H238.6ZM235.511 152.874C235.511 152.874 235.633 152.874 235.707 152.825C235.977 152.727 236.124 152.409 236.001 152.139C235.216 150.177 234.309 148.216 233.279 146.254C233.132 145.985 232.814 145.887 232.568 146.034C232.299 146.181 232.201 146.5 232.348 146.745C233.353 148.657 234.26 150.594 235.02 152.507C235.094 152.727 235.315 152.85 235.511 152.85V152.874ZM229.528 141.522C229.528 141.522 229.724 141.498 229.822 141.424C230.067 141.253 230.141 140.934 229.969 140.689C228.989 139.218 228.008 137.894 227.052 136.766C226.708 136.349 226.365 135.957 225.997 135.564C225.801 135.344 225.458 135.319 225.237 135.515C225.016 135.711 224.992 136.055 225.188 136.275C225.531 136.668 225.875 137.06 226.218 137.452C227.15 138.556 228.106 139.855 229.062 141.277C229.16 141.424 229.332 141.522 229.503 141.522H229.528ZM220.995 131.984C221.142 131.984 221.289 131.911 221.412 131.788C221.608 131.568 221.584 131.224 221.338 131.028C219.696 129.655 217.955 128.356 216.116 127.179C215.871 127.032 215.527 127.081 215.38 127.35C215.209 127.596 215.282 127.939 215.552 128.086C217.342 129.238 219.058 130.489 220.652 131.862C220.75 131.935 220.873 131.984 220.995 131.984ZM210.231 125.07C210.427 125.07 210.623 124.948 210.722 124.776C210.844 124.506 210.722 124.188 210.476 124.065C208.588 123.158 206.578 122.324 204.494 121.589C204.224 121.49 203.905 121.638 203.807 121.907C203.709 122.177 203.856 122.496 204.126 122.594C206.161 123.305 208.147 124.138 209.986 125.021C210.06 125.046 210.133 125.07 210.207 125.07H210.231ZM198.168 120.755C198.413 120.755 198.633 120.583 198.682 120.363C198.756 120.068 198.584 119.774 198.29 119.701C196.28 119.186 194.171 118.744 191.989 118.352C191.694 118.303 191.425 118.499 191.376 118.793C191.327 119.088 191.523 119.357 191.817 119.406C193.975 119.799 196.083 120.24 198.045 120.73C198.094 120.73 198.143 120.73 198.168 120.73V120.755ZM185.54 118.499C185.81 118.499 186.03 118.303 186.079 118.033C186.104 117.739 185.908 117.469 185.614 117.445C183.578 117.2 181.421 117.004 179.19 116.856C178.895 116.856 178.65 117.053 178.626 117.347C178.626 117.641 178.822 117.886 179.116 117.911C181.323 118.058 183.48 118.254 185.491 118.499C185.491 118.499 185.54 118.499 185.565 118.499H185.54ZM140.645 117.764C143.048 117.764 145.353 117.69 147.069 117.616C147.363 117.616 147.608 117.371 147.584 117.077C147.584 116.783 147.339 116.562 147.044 116.562C145.328 116.611 143.023 116.685 140.645 116.709C140.351 116.709 140.105 116.954 140.105 117.249C140.105 117.543 140.351 117.788 140.645 117.788V117.764ZM134.221 117.715C134.515 117.715 134.736 117.494 134.76 117.2C134.76 116.905 134.54 116.66 134.245 116.66C131.965 116.587 129.881 116.464 127.87 116.292C127.576 116.268 127.306 116.489 127.282 116.783C127.257 117.077 127.478 117.347 127.772 117.371C129.807 117.543 131.916 117.666 134.221 117.739V117.715ZM172.741 117.567C173.035 117.567 173.256 117.347 173.28 117.053C173.28 116.758 173.06 116.513 172.765 116.489C170.779 116.415 168.671 116.366 166.341 116.342C166.047 116.342 165.802 116.587 165.802 116.881C165.802 117.175 166.023 117.42 166.341 117.42C168.671 117.445 170.779 117.494 172.741 117.567ZM153.493 117.445C155.16 117.396 156.46 117.371 157.612 117.371L157.71 116.832V117.371H159.893C160.187 117.371 160.432 117.126 160.432 116.832C160.432 116.538 160.187 116.292 159.893 116.292H157.71H157.612C156.46 116.292 155.136 116.292 153.444 116.366C153.15 116.366 152.905 116.611 152.929 116.905C152.929 117.2 153.174 117.42 153.469 117.42L153.493 117.445ZM121.446 116.538C121.691 116.538 121.937 116.366 121.961 116.096C122.01 115.802 121.814 115.532 121.52 115.483C119.313 115.091 117.229 114.601 115.341 114.012C115.071 113.914 114.752 114.086 114.679 114.355C114.581 114.65 114.752 114.944 115.022 115.017C116.959 115.606 119.068 116.121 121.324 116.513C121.348 116.513 121.397 116.513 121.422 116.513L121.446 116.538ZM109.26 112.639C109.456 112.639 109.628 112.541 109.726 112.345C109.873 112.075 109.775 111.756 109.505 111.634C107.568 110.604 105.852 109.378 104.405 108.03C104.184 107.833 103.841 107.833 103.645 108.03C103.449 108.25 103.449 108.594 103.645 108.79C105.165 110.212 106.955 111.487 108.99 112.566C109.064 112.615 109.162 112.639 109.235 112.639H109.26ZM100.188 103.861C100.188 103.861 100.359 103.861 100.433 103.788C100.703 103.641 100.801 103.322 100.654 103.077C99.7219 101.311 99.0354 99.3255 98.6185 97.1923C98.5695 96.8981 98.2753 96.702 97.981 96.7755C97.6868 96.8246 97.4906 97.1188 97.5642 97.413C98.0056 99.6442 98.7166 101.728 99.6974 103.592C99.7955 103.763 99.9671 103.886 100.163 103.886L100.188 103.861Z" fill="#221B8C"/>
</g>
<defs>
<clipPath id="clip0_165_65">
<rect width="398" height="442" fill="white" transform="matrix(-1 0 0 1 398 0)"/>
</clipPath>
</defs>
</svg>
