<?xml version="1.0" standalone="no"?>
<!DOCTYPE svg PUBLIC "-//W3C//DTD SVG 20010904//EN"
 "http://www.w3.org/TR/2001/REC-SVG-20010904/DTD/svg10.dtd">
<svg version="1.0" xmlns="http://www.w3.org/2000/svg"
 width="400.000000pt" height="400.000000pt" viewBox="0 0 400.000000 400.000000"
 preserveAspectRatio="xMidYMid meet">

<g transform="translate(0.000000,400.000000) scale(0.100000,-0.100000)"
fill="#000000" stroke="none">
<path d="M2162 2381 c-9 -5 -12 -26 -10 -67 l3 -59 72 -3 c64 -3 72 -1 78 17
10 32 -6 90 -28 106 -23 16 -94 20 -115 6z"/>
<path d="M262 2238 c-15 -15 -15 -61 0 -76 21 -21 66 -14 84 13 15 23 15 27 0
50 -18 27 -63 34 -84 13z"/>
<path d="M2443 2238 c-33 -43 -12 -88 42 -88 50 0 73 50 39 84 -19 19 -68 21
-81 4z"/>
<path d="M2157 2143 c-4 -3 -7 -16 -7 -28 0 -21 -6 -23 -72 -27 -152 -10 -228
-90 -228 -237 0 -150 111 -241 278 -229 70 5 152 43 169 78 13 26 19 403 7
434 -5 12 -21 16 -73 16 -37 0 -71 -3 -74 -7z m-9 -285 l3 -107 -26 -7 c-54
-13 -113 24 -117 75 -7 107 24 153 102 148 l35 -2 3 -107z"/>
<path d="M598 2077 c-26 -8 -63 -26 -82 -41 l-36 -27 0 -173 c0 -205 2 -209
91 -204 l54 3 3 155 c3 172 6 180 68 180 58 0 64 -15 64 -169 0 -165 5 -174
91 -169 l54 3 3 169 c2 165 2 170 -22 206 -13 20 -41 45 -63 55 -48 23 -163
29 -225 12z"/>
<path d="M1132 2075 c-59 -16 -98 -39 -112 -66 -6 -10 -10 -89 -10 -176 0
-197 4 -205 88 -201 l57 3 5 155 5 155 35 12 c19 7 52 12 72 12 32 1 39 5 44
27 20 79 -58 112 -184 79z"/>
<path d="M1456 2079 c-53 -13 -76 -35 -76 -74 0 -44 19 -59 56 -44 16 6 56 12
90 12 62 2 94 -11 94 -39 0 -13 -21 -18 -122 -29 -95 -10 -148 -59 -148 -138
0 -84 65 -136 180 -145 85 -6 172 13 210 45 l30 25 0 141 c0 164 -10 191 -81
228 -49 24 -170 34 -233 18z m162 -299 c4 -37 -9 -50 -51 -50 -38 0 -67 17
-67 39 0 25 18 39 60 43 51 7 55 5 58 -32z"/>
<path d="M3298 2080 c-100 -30 -142 -111 -102 -196 18 -37 67 -65 152 -84 87
-20 82 -64 -7 -62 -27 0 -66 8 -87 17 -38 15 -40 15 -56 -6 -54 -66 24 -129
158 -129 82 0 132 16 171 55 30 30 33 39 33 90 0 53 -3 60 -34 90 -24 23 -55
38 -103 50 -78 21 -104 38 -85 57 15 15 106 14 146 -1 37 -15 56 0 56 44 0 36
-19 57 -69 74 -38 12 -132 13 -173 1z"/>
<path d="M3638 2083 c6 -2 12 -18 12 -34 0 -16 5 -29 10 -29 6 0 10 13 10 29
0 16 6 32 13 34 6 3 -4 5 -23 5 -19 0 -29 -2 -22 -5z"/>
<path d="M3701 2053 c1 -33 2 -34 8 -13 7 23 8 24 18 6 7 -13 12 -15 18 -7 5
9 11 7 21 -6 12 -16 13 -14 14 20 0 43 -5 45 -30 15 l-17 -22 -7 22 c-11 35
-26 26 -25 -15z"/>
<path d="M242 2069 l-23 -9 3 -201 c4 -234 3 -232 98 -227 l55 3 3 198 2 197
-24 25 c-27 26 -71 32 -114 14z"/>
<path d="M2428 2074 c-16 -5 -18 -24 -18 -209 0 -240 -1 -238 89 -233 l56 3 3
200 c2 155 -1 205 -11 219 -13 18 -84 30 -119 20z"/>
<path d="M2678 2073 c-16 -4 -18 -20 -18 -156 0 -170 13 -216 66 -254 83 -59
275 -55 342 7 21 20 22 28 22 200 0 174 -1 179 -22 194 -23 16 -66 20 -105 10
-23 -6 -23 -9 -23 -164 0 -172 1 -170 -59 -170 -55 0 -66 27 -69 176 -3 124
-5 135 -25 149 -20 14 -71 18 -109 8z"/>
</g>
</svg>
